<?xml version="1.0" encoding="UTF-8" standalone="no"?>
<!-- Created with Inkscape (http://www.inkscape.org/) -->

<svg
   width="1280"
   height="720"
   viewBox="0 0 338.66666 190.50001"
   version="1.1"
   id="svg974"
   inkscape:version="1.1 (c68e22c387, 2021-05-23)"
   sodipodi:docname="intro.svg"
   inkscape:export-filename="C:\Users\Sam\Art\Games\vamp-jam\working\intro.png"
   inkscape:export-xdpi="96"
   inkscape:export-ydpi="96"
   xmlns:inkscape="http://www.inkscape.org/namespaces/inkscape"
   xmlns:sodipodi="http://sodipodi.sourceforge.net/DTD/sodipodi-0.dtd"
   xmlns="http://www.w3.org/2000/svg"
   xmlns:svg="http://www.w3.org/2000/svg">
  <sodipodi:namedview
     id="namedview976"
     pagecolor="#ffffff"
     bordercolor="#666666"
     borderopacity="1.0"
     inkscape:pageshadow="2"
     inkscape:pageopacity="0"
     inkscape:pagecheckerboard="true"
     inkscape:document-units="mm"
     showgrid="false"
     units="px"
     showguides="true"
     inkscape:guide-bbox="true"
     inkscape:snap-bbox="true"
     inkscape:bbox-paths="true"
     inkscape:bbox-nodes="true"
     inkscape:snap-bbox-edge-midpoints="true"
     inkscape:snap-bbox-midpoints="true"
     inkscape:snap-page="true"
     inkscape:snap-others="true"
     inkscape:snap-object-midpoints="true"
     inkscape:snap-text-baseline="true"
     inkscape:snap-center="true"
     inkscape:snap-midpoints="true"
     inkscape:snap-smooth-nodes="true"
     inkscape:snap-intersection-paths="true"
     inkscape:object-paths="true"
     inkscape:zoom="0.47433592"
     inkscape:cx="410.04696"
     inkscape:cy="483.83433"
     inkscape:window-width="1920"
     inkscape:window-height="1027"
     inkscape:window-x="-8"
     inkscape:window-y="-8"
     inkscape:window-maximized="1"
     inkscape:current-layer="layer1"
     inkscape:snap-global="true" />
  <defs
     id="defs971">
    <inkscape:path-effect
       effect="bend_path"
       id="path-effect8347"
       is_visible="true"
       lpeversion="1"
       bendpath="m 60.03097,31.499401 c 0,0 18.445146,-7.494024 55.12732,-7.494024 36.68218,0 50.78868,7.494024 50.78868,7.494024"
       prop_scale="1"
       scale_y_rel="false"
       vertical="false"
       hide_knot="false"
       bendpath-nodetypes="czc" />
    <inkscape:path-effect
       effect="bend_path"
       id="path-effect8086"
       is_visible="true"
       lpeversion="1"
       bendpath="m 60.03097,31.499401 c 0,0 18.445146,-7.494024 55.12732,-7.494024 36.68218,0 50.78868,7.494024 50.78868,7.494024"
       prop_scale="1"
       scale_y_rel="false"
       vertical="false"
       hide_knot="false"
       bendpath-nodetypes="czc" />
  </defs>
  <g
     inkscape:label="Layer 1"
     inkscape:groupmode="layer"
     id="layer1">
    <rect
       style="fill:#000000;fill-opacity:0.5;stroke:none;stroke-width:1.37583;stroke-linejoin:round;stroke-opacity:1"
       id="rect13163"
       width="338.66666"
       height="190.5"
       x="0"
       y="0" />
    <text
       xml:space="preserve"
       style="font-size:8.46667px;line-height:1.25;font-family:Oswald;-inkscape-font-specification:Oswald;fill:#ffffff;fill-opacity:1;stroke-width:0.264583"
       x="131.62288"
       y="49.006973"
       id="text3652"><tspan
         sodipodi:role="line"
         id="tspan3650"
         style="font-size:8.46667px;fill:#ffffff;fill-opacity:1;stroke-width:0.264583"
         x="131.62288"
         y="49.006973">Minimum Viable Product</tspan></text>
    <g
       id="g13125"
       transform="translate(3.3231132,-14.100598)">
      <path
         id="path5909-4-4"
         style="font-size:25.4px;line-height:1.25;font-family:'Permanent Marker';-inkscape-font-specification:'Permanent Marker';fill:#ffffff;fill-opacity:1;stroke:#ffffff;stroke-width:1.37583;stroke-linecap:butt;stroke-linejoin:round;stroke-miterlimit:4;stroke-dasharray:none;stroke-opacity:1;paint-order:normal"
         d="m 168.85273,27.898696 c -0.26476,0.15796 -0.54173,0.31418 -0.84388,0.46663 -0.14727,0.0717 -0.29795,0.14504 -0.45115,0.22014 -0.008,0.005 -1.01777,0.65905 -1.02576,0.66404 -0.50093,0.33319 -1.01581,0.6933 -1.54461,1.08004 -0.51379,0.36812 -1.02375,0.78562 -1.52911,1.25212 -0.50538,0.46649 -1.01481,0.9749 -1.52857,1.52549 -0.49761,0.5484 -0.97563,1.12737 -1.43405,1.73685 -0.45968,0.59307 -0.88426,1.20634 -1.27381,1.83968 -0.39081,0.61693 -0.71728,1.21649 -0.97927,1.79937 0.0387,0.0777 0.0851,0.14606 0.13851,0.20516 0.0694,0.0569 0.12314,0.12435 0.16174,0.20205 0.31633,-0.0259 0.62055,-0.0598 0.91416,-0.10025 0.32589,-0.50588 0.66847,-1.00192 1.04024,-1.48156 0.45841,-0.60949 0.93641,-1.18845 1.43401,-1.73685 0.51377,-0.55059 1.02322,-1.05951 1.5286,-1.526 0.50536,-0.4665 1.01532,-0.88349 1.52911,-1.25161 0.5288,-0.38674 1.04368,-0.74686 1.54459,-1.08003 0.008,-0.005 1.01827,-0.65917 1.02579,-0.66405 0.15316,-0.0751 0.30334,-0.14847 0.45061,-0.22014 0.49019,-0.24732 0.93175,-0.50179 1.32344,-0.76378 -0.0417,-0.1316 -0.0471,-0.22206 -0.016,-0.2713 0.0471,-0.0656 0.0678,-0.14786 0.062,-0.24649 -0.007,-0.11506 -0.0694,-0.17237 -0.18862,-0.1726 -0.11912,-2.2e-4 -0.18222,-0.0581 -0.18913,-0.17312 0.15325,1.9e-4 0.22757,-0.0408 0.22273,-0.12299 -0.005,-0.0822 -0.0272,-0.17262 -0.0672,-0.2713 -0.04,-0.0987 -0.071,-0.18909 -0.093,-0.2713 -0.005,-0.0822 0.0524,-0.12321 0.17209,-0.12299 -0.0965,-0.20834 -0.23104,-0.3722 -0.38344,-0.51521 z m 17.51418,3.35948 c -0.0106,-0.003 -0.0145,0.004 -0.0243,0.002 0.0223,0.04 0.0432,0.0811 0.0651,0.12145 -0.0122,-0.0503 -0.0301,-0.0636 -0.0408,-0.12351 z m 2.81688,0.10438 c -0.0249,0.091 -0.05,0.18188 -0.0749,0.27286 -0.0372,0.0461 -0.0838,0.0997 -0.13901,0.16071 -0.0552,0.061 -0.0951,0.15647 -0.11988,0.28629 -0.0155,0.26265 -0.003,0.4945 0.0356,0.69608 0.0572,0.18673 0.11493,0.36553 0.17261,0.53589 0.0268,0.118 0.054,0.22757 0.0817,0.32917 0.0287,0.0852 0.0487,0.17797 0.0594,0.27802 0.0697,0.10551 0.13888,0.21119 0.20825,0.31678 0.0661,0.0227 0.19219,0.17493 0.37568,0.45682 0.14534,0.0966 0.2834,0.16786 0.41498,0.21394 0.13271,0.0297 0.25754,0.0507 0.37465,0.0625 0.0418,0.004 0.0837,0.008 0.12557,0.0124 0.0514,-0.0113 0.0941,-0.0149 0.12763,-0.0114 0.0837,0.009 0.16698,0.0171 0.25064,0.0258 0.19238,0.0201 0.38484,0.0408 0.57722,0.0615 0.10437,-0.0383 0.24037,-0.0485 0.40772,-0.03 0.0335,0.004 0.0662,0.0156 0.0982,0.0357 0.0502,0.006 0.1007,0.0109 0.15089,0.0165 0.0837,0.009 0.16698,0.0189 0.25064,0.0284 0.18648,0.0212 0.36155,0.005 0.52916,-0.0367 0.0687,-0.15824 0.13465,-0.31799 0.19688,-0.48059 0.082,-0.073 0.16473,-0.1458 0.24702,-0.2186 0.14136,-0.24834 0.25249,-0.44918 0.33538,-0.60513 0.10094,-0.16983 0.20273,-0.3399 0.30438,-0.50953 0.0617,-0.10834 0.11411,-0.20934 0.15761,-0.30334 0.0619,-0.10832 0.11406,-0.20083 0.15605,-0.27853 -0.10043,-0.0134 -0.19312,-0.0163 -0.27852,-0.0103 -0.0838,-0.01 -0.16844,-0.0122 -0.25374,-0.006 -0.10208,0.004 -0.19582,0.01 -0.28112,0.0155 -0.0837,-0.0101 -0.16743,-0.02 -0.25114,-0.03 -0.11719,-0.0139 -0.19987,-0.032 -0.24855,-0.0543 -0.19182,0.0602 -0.39643,0.0779 -0.61394,0.0532 -0.0837,-0.01 -0.16743,-0.0189 -0.25114,-0.0279 -0.0502,-0.006 -0.10017,-0.011 -0.15037,-0.017 -0.032,-0.0201 -0.0652,-0.0317 -0.0987,-0.0357 -0.16735,-0.0185 -0.30335,-0.008 -0.40773,0.03 -0.19237,-0.0207 -0.38433,-0.0409 -0.57671,-0.061 -0.0837,-0.009 -0.16745,-0.0174 -0.25114,-0.0264 -0.0335,-0.004 -0.0757,5.9e-4 -0.12713,0.0119 -0.0419,-0.005 -0.0838,-0.009 -0.12557,-0.0129 -0.11711,-0.0118 -0.24194,-0.0323 -0.37465,-0.062 -0.13158,-0.0461 -0.27014,-0.11786 -0.41548,-0.21446 -0.18349,-0.28189 -0.30959,-0.43412 -0.37568,-0.45682 -0.0694,-0.10559 -0.13806,-0.21127 -0.20775,-0.31678 -0.003,-0.0328 -0.01,-0.0634 -0.015,-0.0946 z m -5.47925,1.17616 c -0.0349,0.0635 -0.0949,0.12562 -0.17931,0.18604 -0.0847,0.0605 -0.17547,0.0382 -0.27337,-0.0667 -0.036,0.12955 -0.0965,0.22497 -0.18087,0.28578 -0.0841,0.0443 -0.17573,0.0634 -0.27546,0.0574 -0.0994,-0.0224 -0.20714,-0.0534 -0.32297,-0.093 -0.099,-0.0551 -0.18952,-0.1176 -0.27181,-0.18811 -0.48781,0.35142 -0.97187,0.69609 -1.45261,1.03457 -0.48075,0.33848 -0.90842,0.73896 -1.28366,1.19992 -0.0654,0.0301 -0.1066,0.0447 -0.12298,0.0439 -0.0165,-0.0172 -0.0656,-0.0108 -0.14729,0.0186 -0.12935,0.30721 -0.29091,0.58838 -0.48421,0.84388 -0.17717,0.23971 -0.3533,0.48804 -0.52864,0.74466 -0.17534,0.25662 -0.32536,0.53051 -0.45011,0.82217 -0.12483,0.29172 -0.19092,0.63479 -0.201,1.02939 0.23148,0.20113 0.49649,0.33682 0.79219,0.41445 0.12906,-0.18515 0.25802,-0.37075 0.38809,-0.54674 0.1933,-0.2555 0.35486,-0.53667 0.48421,-0.84388 0.0817,-0.0294 0.13081,-0.0353 0.14727,-0.0181 0.0164,7.2e-4 0.0576,-0.0143 0.12298,-0.0444 0.37523,-0.46097 0.8029,-0.86093 1.28365,-1.19941 0.48075,-0.33848 0.9648,-0.68367 1.45261,-1.03508 0.0823,0.0705 0.17286,0.13352 0.27184,0.18862 0.11583,0.0396 0.22357,0.0706 0.32297,0.093 0.0997,0.006 0.19135,-0.0136 0.27543,-0.0579 0.0844,-0.0608 0.14486,-0.1557 0.18087,-0.28526 0.0979,0.10484 0.18865,0.12725 0.27337,0.0667 0.0847,-0.0606 0.14494,-0.12286 0.17984,-0.18655 0.32139,0.53122 0.60449,1.10188 0.85058,1.71204 0.12782,0.30778 0.26969,0.60688 0.42273,0.89917 0.0448,-0.0202 0.0871,-0.0408 0.13229,-0.061 0.0706,-0.17621 0.15623,-0.3184 0.25736,-0.42634 0.11718,-0.1067 0.18851,-0.27441 0.21341,-0.50333 -0.0762,-0.13761 -0.1216,-0.23995 -0.13539,-0.30695 -0.0139,-0.0834 -0.0174,-0.20718 -0.0114,-0.37156 -0.33975,-0.53603 -0.63352,-1.10085 -0.88006,-1.69446 -0.24604,-0.61002 -0.5293,-1.18042 -0.85058,-1.71153 z m 14.77584,0.11937 c -0.16682,0.34081 -0.32729,0.64094 -0.48112,0.90072 -0.15383,0.25977 -0.31403,0.51039 -0.48059,0.7519 -0.16867,0.25783 -0.32909,0.52546 -0.48162,0.80253 -0.13401,0.26313 -0.27062,0.55054 -0.40928,0.863 -0.19569,0.23778 -0.3637,0.46329 -0.50488,0.67592 -0.12303,0.19865 -0.23313,0.43252 -0.33073,0.70125 -0.22249,0.21813 -0.39743,0.45982 -0.52554,0.72451 -0.12618,0.24827 -0.22405,0.46773 -0.29403,0.65732 -0.043,0.0938 -0.0859,0.18732 -0.1287,0.28112 -0.10631,0.0853 -0.17129,0.15943 -0.19428,0.22273 -0.0213,0.047 -0.0662,0.0911 -0.13489,0.13177 -0.0356,0.17772 -0.1107,0.34984 -0.22479,0.51728 -0.0404,0.0776 -0.0731,0.15646 -0.0976,0.23617 -0.0226,0.0634 -0.0358,0.11147 -0.0398,0.14417 -0.0176,0.1635 -0.0684,0.26444 -0.15192,0.30334 0.007,0.0838 -0.002,0.17365 -0.0284,0.26975 -0.0244,0.0797 -0.0491,0.15956 -0.0734,0.23926 -0.0677,0.19014 -0.0986,0.34348 -0.0956,0.45992 0.0396,0.0714 0.0723,0.13397 0.0982,0.18707 0.0413,0.0551 0.0643,0.12446 0.0713,0.20826 0.0858,0.0776 0.15123,0.12788 0.19584,0.15038 0.0405,0.0411 0.1147,0.096 0.18603,0.14986 0.0746,-0.13131 0.13316,-0.2646 0.16073,-0.40204 0.0687,-0.0407 0.11356,-0.0843 0.13486,-0.13126 0.0231,-0.0633 0.088,-0.13746 0.19431,-0.22273 0.0428,-0.0938 0.0857,-0.18787 0.12867,-0.28163 0.07,-0.18959 0.16788,-0.40854 0.29406,-0.65681 0.12811,-0.26469 0.30302,-0.50637 0.52554,-0.7245 0.0976,-0.26873 0.2077,-0.5026 0.33073,-0.70125 0.14115,-0.21262 0.30972,-0.43815 0.50538,-0.67593 0.13869,-0.31246 0.27477,-0.60038 0.40878,-0.86351 0.15253,-0.27707 0.31292,-0.54418 0.48162,-0.80202 0.16656,-0.2415 0.32726,-0.49212 0.48109,-0.7519 0.15386,-0.25977 0.31377,-0.56042 0.48059,-0.90123 0.25432,0.0219 0.53457,0.0403 0.84183,0.0553 0.32395,0.0177 0.65775,0.0298 1.00147,0.0362 0.4807,0.0123 0.96906,0.0368 1.46502,0.0734 0.28448,0.0116 0.52777,0.0538 0.78706,0.0842 0.0123,-0.0549 0.028,-0.11025 0.0377,-0.16485 0.046,-0.25965 0.0497,-0.46854 0.009,-0.62683 0.0281,-0.0619 0.0666,-0.0881 0.11625,-0.0791 0.0692,-0.004 0.14428,0.0102 0.22429,0.0419 0.16968,-0.45685 0.32544,-0.95735 0.46665,-1.49965 -0.0784,-0.03 -0.1656,-0.054 -0.26202,-0.0718 -0.42058,-0.0778 -0.88104,-0.12749 -1.37975,-0.1478 -0.49599,-0.0366 -0.98433,-0.0606 -1.46502,-0.0729 -0.34372,-0.006 -0.67755,-0.0185 -1.0015,-0.0362 -0.30726,-0.015 -0.58748,-0.0334 -0.8418,-0.0553 z m -74.1221,0.37001 c -1.01195,0.104 -1.99263,0.32826 -2.94142,0.67282 -0.94885,0.34457 -1.73083,0.76604 -2.34455,1.26453 0.35996,0.23354 0.72355,0.43336 1.09087,0.59944 0.38362,0.1639 0.68694,0.41315 0.91004,0.74828 0.73893,-0.41584 1.37141,-0.90016 1.89756,-1.45314 0.52414,-0.56931 0.98685,-1.17979 1.3875,-1.83193 z m 83.82744,0.2067 c -0.15341,0.44134 -0.32756,0.88462 -0.52605,1.33067 -0.19587,0.48132 -0.39534,0.94515 -0.5979,1.39113 -0.18616,0.44965 -0.35486,0.82682 -0.50694,1.13171 -0.002,0.0843 0.0428,0.15343 0.13279,0.20723 0.0937,0.0377 0.0891,0.13004 -0.0113,0.27698 0.24535,-0.004 0.4962,-0.004 0.7493,-10e-4 0.0774,-0.18224 0.15674,-0.35452 0.23305,-0.54209 0.21259,-0.47769 0.39991,-0.95239 0.5607,-1.42472 0.17777,-0.46875 0.31811,-0.88603 0.42013,-1.25315 -0.12427,-0.4004 -0.27519,-0.77228 -0.4527,-1.11518 -2.6e-4,-5.5e-4 -7.4e-4,-10e-4 -0.001,-0.002 z m -79.57704,1.34876 c -0.11599,0.27157 -0.2518,0.53496 -0.41187,0.78806 -0.26609,0.40139 -0.55775,0.78958 -0.8754,1.16479 -0.30147,0.37303 -0.57582,0.76748 -0.82217,1.18287 0.22296,0.2188 0.46815,0.41781 0.73536,0.59738 0.14028,0.0803 0.28043,0.16053 0.42063,0.24081 0.18463,-0.23877 0.37775,-0.4732 0.54261,-0.72191 0.26418,-0.41774 0.46847,-0.86029 0.61238,-1.32809 0.16012,-0.46997 0.19732,-1.00655 0.11162,-1.6092 -0.0419,-0.0774 -0.1044,-0.11903 -0.18759,-0.12403 -0.0832,-0.005 -0.12231,-0.0578 -0.11731,-0.15813 -0.001,-0.0116 -0.007,-0.0211 -0.008,-0.0326 z m 37.98528,0.063 c -0.14803,0.1256 -0.29657,0.25117 -0.44442,0.37672 -0.0209,0.16861 -0.0592,0.31502 -0.11576,0.43874 -0.0566,0.12373 -0.0869,0.27657 -0.0904,0.4594 0.0669,0.0241 0.10708,0.019 0.12091,-0.016 0.03,-0.0372 0.0442,-0.0726 0.0419,-0.10542 0.0139,-0.035 0.0274,-0.0699 0.0414,-0.1049 0.0139,-0.035 0.0622,-0.0415 0.1452,-0.0196 0.11869,0.0668 0.18261,0.16576 0.19172,0.29714 0.009,0.13138 -0.0391,0.25406 -0.14521,0.36794 0.0166,0.10891 0.049,0.19595 0.0749,0.29197 0.50985,-0.21245 1.01193,-0.42394 1.53168,-0.63769 -0.29732,-0.0756 -0.5609,-0.13078 -0.79063,-0.16588 -0.10322,-0.0854 -0.10864,-0.1677 -0.0165,-0.2465 0.10705,-0.0974 0.18976,-0.19177 0.24855,-0.28267 -0.26768,-0.1128 -0.49871,-0.28003 -0.69297,-0.50229 -0.0365,-0.046 -0.0687,-0.0979 -0.10025,-0.1509 z m -18.54565,0.12144 c -0.0263,0.0699 -0.0771,0.14313 -0.15193,0.21963 -0.0748,0.0765 -0.16472,0.0723 -0.27077,-0.0129 -0.0202,0.13547 -0.0679,0.24131 -0.14264,0.31781 -0.0762,0.0601 -0.1625,0.097 -0.25942,0.11007 -0.0984,-0.003 -0.20582,-0.0135 -0.32195,-0.031 -0.10149,-0.036 -0.19576,-0.0814 -0.28265,-0.13591 -0.43326,0.44044 -0.86667,0.87262 -1.30019,1.29657 -0.43355,0.42391 -0.81238,0.89836 -1.13689,1.42368 -0.0613,0.0415 -0.10017,0.0636 -0.11625,0.0656 -0.0177,-0.0142 -0.0652,7.4e-4 -0.14264,0.0444 -0.0986,0.32867 -0.23151,0.63727 -0.39894,0.92553 -0.15298,0.2697 -0.30477,0.5475 -0.45577,0.83354 -0.15103,0.28605 -0.27641,0.58541 -0.37571,0.89762 -0.0994,0.31222 -0.13719,0.66575 -0.11419,1.06091 0.19335,0.12573 0.40476,0.20566 0.63148,0.24857 0.10472,-0.19417 0.20899,-0.38981 0.31472,-0.57619 0.16743,-0.28827 0.30033,-0.59686 0.39894,-0.92553 0.0774,-0.0437 0.12491,-0.0586 0.14261,-0.0444 0.0162,-0.002 0.055,-0.0241 0.11628,-0.0656 0.32449,-0.52532 0.70334,-0.99976 1.13689,-1.42369 0.43352,-0.42393 0.86691,-0.85612 1.30016,-1.29656 0.0869,0.0545 0.18119,0.0999 0.28268,0.13591 0.11613,0.0175 0.22355,0.028 0.32195,0.031 0.0969,-0.0131 0.18322,-0.05 0.2594,-0.11007 0.0747,-0.0765 0.12245,-0.18235 0.14263,-0.31781 0.10605,0.0851 0.19651,0.0894 0.27131,0.0129 0.0748,-0.0765 0.12512,-0.14973 0.15142,-0.21963 0.36986,0.46407 0.71056,0.97317 1.02214,1.52807 0.18679,0.32436 0.39518,0.62969 0.61444,0.92553 0.11033,-0.078 0.21749,-0.1553 0.33022,-0.23358 0.048,-0.18902 0.11481,-0.34707 0.20101,-0.47491 0.10215,-0.13002 0.15176,-0.31097 0.14676,-0.5426 -0.0922,-0.12019 -0.14904,-0.21203 -0.17105,-0.27543 -0.0235,-0.0798 -0.0426,-0.20147 -0.0574,-0.36536 -0.39966,-0.45992 -0.75496,-0.95909 -1.06506,-1.49758 -0.3116,-0.5549 -0.65177,-1.06452 -1.02163,-1.52859 z m -30.4922,0.92604 c -0.27159,0.0701 -0.46246,0.19588 -0.57102,0.37672 -0.0923,0.17866 -0.13682,0.40901 -0.1328,0.69092 -0.12885,0.15038 -0.30646,0.2405 -0.53332,0.2713 -0.22891,0.0145 -0.42778,0.0666 -0.59737,0.15606 -0.71684,-0.18512 -1.33644,-0.49991 -1.85828,-0.94412 -0.18518,-0.16351 -0.35761,-0.34537 -0.52451,-0.53589 -0.0498,0.0519 -0.10588,0.098 -0.15348,0.15193 -0.31883,0.34228 -0.52941,0.74458 -0.63252,1.20716 0.36889,0.64776 0.80595,1.19483 1.31154,1.64124 0.52174,0.44412 1.14165,0.75899 1.85828,0.94413 0.16952,-0.0894 0.36862,-0.14157 0.59737,-0.15606 0.22683,-0.0308 0.40498,-0.12144 0.53383,-0.27182 -0.004,-0.28191 0.0405,-0.51226 0.13282,-0.69091 0.0801,-0.13346 0.21974,-0.22612 0.38859,-0.29921 0.005,-0.0872 0.0138,-0.17251 0.031,-0.25373 0.0513,-0.23953 0.10361,-0.47081 0.15711,-0.69402 0.0676,-0.24172 0.11023,-0.48801 0.12711,-0.73949 0.017,-0.25147 -0.0273,-0.53651 -0.13436,-0.85421 z m 101.45377,0.22221 c -0.0171,0.0544 -0.0322,0.10762 -0.0496,0.16227 -0.18011,0.56915 -0.37886,1.15634 -0.59635,1.76423 -0.42185,0.63198 -0.85833,1.24853 -1.29966,1.8402 -0.23553,0.3269 -0.45921,0.67578 -0.6718,1.0449 -0.16706,0.2901 -0.3275,0.59303 -0.48162,0.90847 -0.17399,0.0947 -0.33576,0.22931 -0.48472,0.40411 -0.14332,0.15924 -0.28784,0.32706 -0.43513,0.50281 -0.12666,0.16552 -0.26805,0.3258 -0.42323,0.48162 -0.15513,0.15581 -0.32126,0.27313 -0.49763,0.35244 -0.0158,0.23926 -0.0816,0.45269 -0.19534,0.64078 -0.0938,0.1778 -0.11988,0.42195 -0.0822,0.73278 -0.13904,0.4938 -0.33838,0.88014 -0.59169,1.15961 -0.23421,0.26904 -0.50922,0.48155 -0.82476,0.63821 -0.29649,0.14568 -0.62023,0.24047 -0.97306,0.28577 -0.33398,0.034 -0.66537,0.0625 -0.99478,0.0858 -0.11292,-0.13689 -0.22013,-0.27121 -0.32091,-0.40359 -0.0819,-0.1441 -0.20241,-0.2643 -0.36174,-0.3607 0.0562,-0.0615 0.11261,-0.12309 0.16899,-0.18449 -0.089,-0.17964 -0.16819,-0.36078 -0.24289,-0.5426 -0.0233,0.0545 -0.0478,0.11304 -0.0708,0.1664 -0.0817,0.18358 -0.12441,0.28374 -0.12869,0.29972 -0.13918,0.45938 -0.15238,0.90082 -0.0455,1.32395 0.12607,0.41139 0.28914,0.81596 0.48731,1.21595 -0.0564,0.0614 -0.11274,0.12299 -0.16899,0.18448 0.15933,0.0964 0.27985,0.21712 0.36174,0.36122 0.10078,0.13238 0.20799,0.2667 0.32091,0.40359 0.32941,-0.0233 0.66077,-0.0523 0.99476,-0.0863 0.35282,-0.0453 0.67659,-0.14009 0.97308,-0.28577 0.31554,-0.15666 0.59055,-0.36864 0.82476,-0.63768 0.25331,-0.27948 0.45265,-0.66634 0.59169,-1.16014 -0.0377,-0.31082 -0.0118,-0.55446 0.0822,-0.73226 0.11374,-0.1881 0.17955,-0.40152 0.19534,-0.64078 0.17637,-0.0792 0.34253,-0.19662 0.49766,-0.35243 0.15515,-0.15584 0.29604,-0.31663 0.42269,-0.48215 0.1473,-0.17575 0.29282,-0.34305 0.43617,-0.50229 0.14893,-0.17481 0.3102,-0.30994 0.48419,-0.40463 0.15412,-0.31543 0.31456,-0.61837 0.48165,-0.90847 0.21256,-0.36912 0.43624,-0.71748 0.67177,-1.04438 0.44133,-0.59167 0.87731,-1.20822 1.29916,-1.8402 0.21749,-0.60789 0.41624,-1.19508 0.59634,-1.76423 0.18606,-0.58455 0.35539,-1.15658 0.50851,-1.71824 -0.18198,-0.25428 -0.32269,-0.5196 -0.42376,-0.7984 -0.013,-0.0359 -0.0224,-0.0732 -0.0341,-0.10956 z m -81.84978,0.89969 c -0.0473,0.20666 -0.0964,0.41481 -0.14161,0.62012 -0.16087,0.80198 -0.27969,1.60654 -0.35708,2.4138 -0.0792,0.79091 -0.1003,1.58211 -0.0646,2.37402 0.01,0.15053 0.0261,0.30086 0.0424,0.45113 0.009,-0.12037 0.0107,-0.24088 0.0228,-0.36121 0.0774,-0.80726 0.19672,-1.61184 0.35758,-2.41381 0.17701,-0.80414 0.36963,-1.61872 0.57878,-2.44378 -0.13459,-0.0315 -0.24175,-0.11627 -0.32195,-0.25477 -0.0504,-0.12053 -0.0838,-0.25273 -0.11625,-0.3855 z m 37.13985,0.83716 c -0.1175,0.13515 -0.24069,0.26308 -0.37052,0.3824 -0.42053,0.36945 -0.89649,0.68955 -1.42836,0.96067 -0.51588,0.27139 -1.07106,0.50228 -1.66706,0.6935 -0.59671,0.17472 -1.20893,0.35123 -1.83451,0.52916 -0.21373,0.0551 -0.42783,0.11227 -0.64286,0.17157 -0.41751,0.17355 -0.8378,0.35491 -1.26092,0.54363 -0.62712,0.26775 -1.24397,0.56698 -1.8495,0.89814 -0.27162,0.037 -0.50241,0.0769 -0.69297,0.11937 -0.19052,0.0425 -0.37234,0.092 -0.5457,0.14883 -0.17333,0.0568 -0.34658,0.11373 -0.51988,0.17053 -0.1733,0.0568 -0.36356,0.10723 -0.56999,0.15193 -0.081,-0.006 -0.13549,0.0187 -0.1638,0.0724 -0.0123,0.0514 -0.0414,0.0965 -0.0868,0.13591 -0.31573,0.0927 -0.60079,0.15692 -0.8563,0.19172 l -0.64699,0.0879 c -0.22354,0.0305 -0.45238,0.095 -0.68678,0.19327 -0.23439,0.0982 -0.45624,0.15295 -0.66505,0.16484 -1.4419,0.13012 -2.60932,-0.24117 -3.50626,-1.11414 -0.80468,-0.78319 -1.33866,-1.90752 -1.603,-3.36569 -0.0864,0.22169 -0.18288,0.43304 -0.26356,0.66043 0.0515,0.22519 0.0589,0.41482 0.0233,0.56896 -0.0358,0.15414 -0.0457,0.3214 -0.0305,0.50178 0.0349,0.0284 0.0777,0.0559 0.12867,0.0822 0.0496,0.01 0.0697,0.0563 0.0605,0.14056 0.22527,1.71057 0.78854,3.00304 1.68519,3.87573 0.89694,0.87297 2.06433,1.24477 3.50623,1.11467 0.20881,-0.0119 0.43069,-0.0671 0.66508,-0.16537 0.2344,-0.0983 0.46324,-0.16229 0.68678,-0.19275 l 0.64699,-0.0884 c 0.25548,-0.0348 0.54057,-0.0985 0.85627,-0.1912 0.0454,-0.0394 0.0745,-0.085 0.0868,-0.13643 0.0283,-0.0536 0.0828,-0.0773 0.16383,-0.0718 0.20643,-0.0447 0.39669,-0.0956 0.56999,-0.15244 0.1733,-0.0568 0.34653,-0.11325 0.51985,-0.17002 0.17336,-0.0568 0.35518,-0.1063 0.54571,-0.14883 0.19055,-0.0425 0.42137,-0.0824 0.69299,-0.11937 0.60553,-0.33116 1.22235,-0.6309 1.84949,-0.89865 0.4231,-0.18872 0.84339,-0.36957 1.2609,-0.54312 0.21503,-0.0593 0.42913,-0.11648 0.64286,-0.17157 0.62561,-0.17793 1.23783,-0.35445 1.83452,-0.52917 0.596,-0.19122 1.1512,-0.4221 1.66708,-0.69349 0.53187,-0.27112 1.00783,-0.59122 1.42833,-0.96067 0.12983,-0.11932 0.25252,-0.24778 0.37002,-0.38292 -0.0295,0.52103 0.007,1.07917 0.10954,1.67587 0.19124,0.44839 0.42833,0.88169 0.71056,1.30018 0.29755,0.40239 0.63101,0.75682 1.00044,1.06401 0.38481,0.29123 0.81315,0.51093 1.28519,0.65939 0.48776,0.14903 1.01074,0.19418 1.57253,0.13591 0.59462,0.15709 1.1086,0.214 1.54511,0.17002 0.45201,-0.0267 0.91191,-0.11744 1.38184,-0.27182 0.18687,0.0271 0.40494,0.0318 0.65474,0.0139 0.25008,-0.0343 0.50022,-0.0847 0.75139,-0.15089 0.25151,-0.0827 0.49604,-0.16533 0.73276,-0.24805 0.23723,-0.0992 0.44297,-0.19163 0.61804,-0.27802 0.22032,-0.0337 0.43326,-0.0677 0.6382,-0.1018 0.22059,-0.0329 0.41902,-0.1 0.59584,-0.20154 0.27541,-0.20925 0.57431,-0.38279 0.89607,-0.5209 0.3217,-0.13809 0.60052,-0.34499 0.83717,-0.62115 0.17867,-0.0832 0.33657,-0.21805 0.47437,-0.40359 0.13875,-0.20196 0.25564,-0.42205 0.34986,-0.66094 0.0952,-0.25531 0.1669,-0.51292 0.21497,-0.77256 0.0491,-0.27611 0.065,-0.53043 0.047,-0.76327 -0.0211,-0.18356 -0.0584,-0.36847 -0.11213,-0.555 -0.0403,-0.14001 -0.0903,-0.27157 -0.14055,-0.40308 -0.004,0.01 -0.006,0.0197 -0.01,0.0295 -0.0942,0.23889 -0.21111,0.4595 -0.34986,0.66146 -0.13779,0.18554 -0.29572,0.31977 -0.47439,0.40307 -0.23665,0.27616 -0.51544,0.48306 -0.83714,0.62115 -0.32176,0.13811 -0.62069,0.31217 -0.8961,0.52142 -0.17682,0.10154 -0.37523,0.16864 -0.59581,0.20154 -0.20495,0.0341 -0.41741,0.0676 -0.6377,0.10128 -0.1751,0.0864 -0.38134,0.17882 -0.61857,0.27802 -0.23672,0.0827 -0.48072,0.16535 -0.73223,0.24805 -0.25117,0.0662 -0.50181,0.11659 -0.7519,0.15089 -0.24979,0.0179 -0.46786,0.0137 -0.65473,-0.0134 -0.46993,0.15438 -0.92983,0.24512 -1.38184,0.27182 -0.43654,0.044 -0.95049,-0.0134 -1.54512,-0.17054 -0.56179,0.0583 -1.08476,0.0131 -1.57252,-0.1359 -0.47204,-0.14848 -0.90038,-0.36765 -1.28519,-0.65888 -0.36944,-0.30719 -0.70292,-0.66214 -1.00047,-1.06453 -0.28223,-0.41849 -0.5193,-0.85128 -0.71054,-1.29967 -0.10205,-0.5967 -0.13853,-1.15482 -0.10903,-1.67586 z m -49.09211,2.43344 c -0.50756,0.002 -0.99002,0.0765 -1.44746,0.22169 -0.44331,0.12667 -0.86643,0.28369 -1.26915,0.47129 -0.40275,0.1876 -0.80952,0.34233 -1.2201,0.46457 -0.13973,0.5837 -0.27969,1.22588 -0.42014,1.92598 -0.14046,0.7001 -0.27453,1.38279 -0.40203,2.04794 0.18288,-0.0517 0.35838,-0.1086 0.5302,-0.16743 0.0977,-0.46335 0.19563,-0.9353 0.293,-1.34204 0.41058,-0.12224 0.81738,-0.27697 1.2201,-0.46457 0.40272,-0.1876 0.82584,-0.34514 1.26915,-0.47181 0.45744,-0.14523 0.93993,-0.21917 1.44748,-0.22117 0.0719,-6.5e-4 0.15463,0.021 0.22892,0.0253 0.13573,-0.0789 0.26998,-0.15895 0.40928,-0.23513 0.0247,-0.20264 0.1102,-0.37223 0.25734,-0.50849 0.14713,-0.13625 0.2957,-0.26404 0.44495,-0.38396 0.14727,-0.13627 0.26919,-0.2777 0.36637,-0.42375 0.0798,-0.11986 0.10419,-0.26767 0.0786,-0.44028 -0.0813,-0.062 -0.15994,-0.12621 -0.23667,-0.19223 -0.56615,-0.20422 -1.08474,-0.31037 -1.54927,-0.30593 z m 28.21585,0.71055 c -0.0371,0.10137 -0.0759,0.20196 -0.12195,0.29869 -0.11123,0.21419 -0.25093,0.38253 -0.41857,0.50488 -0.19867,0.3256 -0.4504,0.59195 -0.75604,0.79943 -0.30568,0.2075 -0.58415,0.44459 -0.83561,0.71107 -0.16571,0.13869 -0.35835,0.24793 -0.57775,0.32763 -0.20341,0.0775 -0.41476,0.15605 -0.63404,0.23565 -0.16696,0.12227 -0.36513,0.25676 -0.59428,0.4041 -0.23069,0.13097 -0.46924,0.26325 -0.71573,0.39636 -0.24797,0.11674 -0.49736,0.21686 -0.74827,0.30076 -0.25241,0.0676 -0.47506,0.10627 -0.66818,0.11627 -0.46206,0.24546 -0.92217,0.42421 -1.38027,0.5364 -0.44061,0.12679 -0.97028,0.16519 -1.58957,0.11679 -0.5666,0.16011 -1.10342,0.20881 -1.61128,0.14521 -0.49189,-0.0657 -0.94343,-0.21215 -1.35496,-0.43821 -0.39722,-0.24462 -0.76018,-0.54348 -1.08831,-0.89711 -0.31382,-0.37218 -0.58174,-0.76752 -0.80357,-1.18545 -0.0367,-0.14955 -0.0618,-0.29441 -0.0894,-0.44029 -0.0222,0.12252 -0.0565,0.23755 -0.0744,0.36277 -0.1152,0.77919 -0.0597,1.62642 0.16483,2.54197 0.22186,0.41792 0.48977,0.81276 0.80357,1.18494 0.32814,0.35363 0.69059,0.653 1.08781,0.89762 0.41153,0.22607 0.86307,0.37199 1.35496,0.4377 0.50786,0.0636 1.04468,0.0155 1.61126,-0.1447 0.61928,0.0484 1.14897,0.009 1.58956,-0.11731 0.4581,-0.11218 0.91821,-0.29094 1.38028,-0.5364 0.19312,-0.01 0.41576,-0.0482 0.66818,-0.11575 0.2509,-0.0839 0.5003,-0.18454 0.74826,-0.30127 0.24649,-0.13312 0.48504,-0.26488 0.71573,-0.39585 0.22918,-0.14735 0.42735,-0.28235 0.59428,-0.40462 0.21931,-0.0796 0.43066,-0.15815 0.63407,-0.23565 0.2194,-0.0796 0.41204,-0.18843 0.57775,-0.32711 0.25146,-0.26649 0.52993,-0.50357 0.8356,-0.71107 0.30565,-0.20749 0.5579,-0.47435 0.75655,-0.79995 0.16764,-0.12235 0.30681,-0.29069 0.41805,-0.50488 0.10985,-0.23058 0.19465,-0.47385 0.25373,-0.7307 0.0577,-0.27324 0.0908,-0.54359 0.10078,-0.81029 0.008,-0.2831 -0.0133,-0.53704 -0.0651,-0.76223 -0.0419,-0.15505 -0.10115,-0.30774 -0.16796,-0.4594 z m 55.81417,0.74156 c -0.12263,0.004 -0.24733,0.0106 -0.37362,0.0212 -0.50511,0.0422 -1.00766,0.11473 -1.50688,0.21652 -0.29287,0.0546 -0.57825,0.11799 -0.85577,0.19069 -0.17642,0.0463 -0.34901,0.0963 -0.51882,0.14986 -0.416,0.12467 -0.75586,0.23601 -1.01648,0.33021 -0.0105,0.0486 -0.0792,0.17713 -0.20412,0.38654 -0.12486,0.20932 -0.26763,0.43126 -0.42841,0.66662 -0.15733,0.21915 -0.32385,0.41095 -0.4997,0.57568 -0.16078,0.16801 -0.3066,0.2299 -0.43873,0.185 0.0137,0.0872 0.0305,0.15801 0.0506,0.21291 0.0235,0.0388 0.009,0.11177 -0.0445,0.21859 -0.27109,0.0266 -0.52438,0.0833 -0.75911,0.1695 -0.21985,0.0893 -0.44175,0.15324 -0.66612,0.19224 -0.22743,0.0551 -0.46627,0.0497 -0.71728,-0.016 -0.23913,-0.0466 -0.5124,-0.19965 -0.82423,-0.45889 0.0196,-0.11365 -0.009,-0.2194 -0.0853,-0.31729 -0.0737,-0.11417 -0.1578,-0.21336 -0.25268,-0.29766 -0.0798,-0.0815 -0.15401,-0.15361 -0.22169,-0.21601 -0.0527,-0.0486 -0.0754,-0.0916 -0.0822,-0.13177 -0.0183,0.0276 -0.0384,0.0442 -0.0543,0.0879 -0.0441,0.0759 -0.0816,0.16144 -0.11263,0.25631 -0.0285,0.0786 -0.0698,0.13856 -0.12404,0.17932 0.10565,0.33557 0.16386,0.61326 0.17571,0.83251 0.0272,0.22225 0.11899,0.48055 0.27387,0.77618 -0.0555,-0.0434 -0.10866,-0.0528 -0.15967,-0.0284 -0.0358,0.0271 -0.0657,0.0634 -0.0889,0.10955 -0.008,0.0488 -0.008,0.099 -10e-4,0.15038 0.007,0.0515 0.035,0.0732 0.0832,0.0651 -0.008,0.0487 0.0222,0.10402 0.0899,0.1664 0.0677,0.0624 0.14142,0.1345 0.22116,0.21601 0.0949,0.0843 0.17897,0.18349 0.25271,0.29765 0.0765,0.0979 0.10491,0.20366 0.0853,0.31729 0.31184,0.25926 0.58508,0.41286 0.82423,0.45941 0.25101,0.0657 0.48983,0.0706 0.71726,0.0155 0.22437,-0.039 0.4463,-0.10292 0.66612,-0.19224 0.23476,-0.0862 0.48802,-0.1429 0.75911,-0.16949 0.053,-0.10682 0.0679,-0.17932 0.0444,-0.21808 -0.0201,-0.0549 -0.0369,-0.12617 -0.0506,-0.21342 0.13213,0.0449 0.27795,-0.0165 0.43873,-0.18449 0.17585,-0.16473 0.34237,-0.35706 0.49972,-0.57619 0.16079,-0.23536 0.30353,-0.45732 0.42839,-0.66662 0.12491,-0.20941 0.19315,-0.33794 0.20362,-0.38654 0.26062,-0.0942 0.60047,-0.20503 1.01648,-0.3297 0.16981,-0.0536 0.3429,-0.10356 0.51932,-0.14986 0.27752,-0.0727 0.5629,-0.13664 0.85577,-0.19121 0.49922,-0.10178 1.00177,-0.17428 1.50688,-0.21652 0.16621,-0.0139 0.32438,-0.0123 0.48422,-0.0139 0.0139,-0.18974 0.0454,-0.38194 0.1049,-0.57826 0.004,-0.016 0.0475,-0.11563 0.1292,-0.29921 0.086,-0.19956 0.17378,-0.40735 0.26458,-0.6227 0.10608,-0.2113 0.20037,-0.40792 0.28319,-0.59118 0.10242,-0.19502 0.15721,-0.30077 0.16123,-0.31677 -0.33377,-0.0523 -0.68529,-0.0732 -1.05317,-0.0625 z m -76.15349,0.0832 c -0.0337,0.28488 -0.0632,0.57152 -0.0786,0.86558 -0.005,0.2497 1.9e-4,0.51456 0.015,0.79478 0.029,0.26167 0.05,0.52421 0.0631,0.78807 0.0289,0.26167 0.0417,0.52564 0.0388,0.79168 0.0112,0.2475 -0.0124,0.47497 -0.0708,0.68213 0.0951,0.26923 0.20249,0.57824 0.32248,0.92707 0.13602,0.34672 0.28101,0.70051 0.4346,1.06144 0.15174,0.34457 0.31031,0.68007 0.47594,1.00614 0.16563,0.32606 0.34086,0.5927 0.52554,0.79995 0.29265,0.01 0.59777,-0.015 0.91519,-0.0749 0.31742,-0.0598 0.58767,-0.17981 0.81132,-0.35967 0.24138,-0.16568 0.41143,-0.39588 0.50953,-0.69143 0.11412,-0.2977 0.10489,-0.68693 -0.0274,-1.16686 -0.0847,-0.2886 -0.1442,-0.57806 -0.20466,-0.86764 -0.0792,0.0996 -0.17044,0.18817 -0.27802,0.262 -0.22363,0.17986 -0.4939,0.29977 -0.81132,0.35967 -0.31742,0.0599 -0.62254,0.0844 -0.91516,0.0744 -0.18468,-0.20725 -0.35994,-0.47389 -0.52557,-0.79995 -0.16563,-0.32607 -0.3242,-0.66105 -0.47594,-1.00562 -0.15359,-0.36094 -0.29858,-0.71472 -0.4346,-1.06144 -0.11999,-0.34883 -0.22736,-0.65836 -0.32245,-0.92759 0.0584,-0.20716 0.0819,-0.43411 0.0708,-0.68161 0.003,-0.26082 -0.01,-0.51956 -0.0377,-0.77618 z m 58.20987,0.0284 c -0.10776,0.46165 -0.17976,0.97561 -0.20825,1.55701 0.0546,0.10524 0.0918,0.22562 0.11216,0.36019 0.0359,0.13631 0.0634,0.2795 0.0821,0.43046 0.0159,0.18374 0.0392,0.36849 0.0703,0.55397 0.0466,0.18722 0.11793,0.36056 0.21291,0.52038 l -0.0258,0.29507 c 0.0656,0.0489 0.13091,0.0978 0.19635,0.14677 0.11737,0.0801 0.27027,0.18048 0.46045,0.30282 0.0521,0.10557 0.11486,0.17916 0.18809,0.22118 0.0734,0.0421 0.16844,0.0948 0.28578,0.15916 0.0104,0.051 0.0499,0.1221 0.11782,0.21342 0.0913,0.0114 0.18211,0.0231 0.27337,0.0346 0.54723,0.0693 0.95091,-0.0339 1.21441,-0.31367 0.24421,-0.24877 0.35713,-0.61543 0.33432,-1.09967 -0.0599,-0.0912 -0.12009,-0.18229 -0.18034,-0.27337 -0.11609,-0.082 -0.20245,-0.15151 -0.25889,-0.20878 -0.0446,-0.0225 -0.10951,-0.0723 -0.19534,-0.14986 -0.007,-0.0838 -0.0305,-0.15313 -0.0718,-0.20825 -0.0258,-0.0531 -0.0586,-0.11563 -0.0982,-0.18707 -4.3e-4,-0.0161 0.0125,-0.0461 0.0134,-0.0636 -0.21199,0.0634 -0.46384,0.0776 -0.75862,0.0403 -0.0913,-0.0115 -0.18206,-0.0227 -0.27336,-0.0341 -0.0679,-0.0913 -0.10753,-0.16243 -0.11782,-0.21343 -0.11735,-0.0643 -0.21238,-0.11706 -0.28578,-0.15916 -0.0732,-0.042 -0.13599,-0.11612 -0.18809,-0.22169 -0.19018,-0.12233 -0.34309,-0.22221 -0.46046,-0.30231 -0.0654,-0.049 -0.13025,-0.0984 -0.19584,-0.14728 l 0.0258,-0.29455 c -0.095,-0.15982 -0.16632,-0.33368 -0.21291,-0.5209 -0.0246,-0.1467 -0.0408,-0.29219 -0.0558,-0.4377 z m -60.89808,1.92391 c -0.0296,0.0515 -0.1024,0.16758 -0.12401,0.20722 -0.10766,0.19734 -0.18871,0.34152 -0.24342,0.43202 -0.0547,0.0905 -0.11041,0.1724 -0.1669,0.2465 -0.0566,0.0742 -0.18555,0.22438 -0.38706,0.45113 -0.78806,0.63861 -1.62007,1.23378 -2.4965,1.78491 -0.86241,0.53261 -1.77877,0.93975 -2.75072,1.22163 -0.0658,0.12523 -0.17452,0.23122 -0.3261,0.31832 -0.13358,0.10124 -0.29307,0.18949 -0.47849,0.26459 -0.18545,0.0751 -0.38788,0.14412 -0.60722,0.20722 -0.20334,0.0609 -0.39085,0.11962 -0.56224,0.17622 -0.0839,-0.0218 -0.13915,-0.0724 -0.16537,-0.15193 -0.008,-0.0653 -0.0541,-0.10894 -0.13798,-0.13074 0.009,0.19813 -0.0667,0.30851 -0.22632,0.33021 -0.14158,0.0359 -0.32901,0.0279 -0.56277,-0.0232 -0.23373,-0.0512 -0.47974,-0.13373 -0.73792,-0.24805 -0.25821,-0.11433 -0.48348,-0.22509 -0.67593,-0.33177 -0.061,0.15782 -0.145,0.32732 -0.25168,0.50798 -0.0907,0.17848 -0.19552,0.30901 -0.31472,0.39171 -0.0395,0 -0.47249,-0.005 -0.5121,-0.005 -0.0979,-0.003 -0.1883,0.0508 -0.2713,0.16175 -0.13613,-0.0479 -0.24175,-0.10848 -0.31626,-0.18138 -0.0724,-0.0566 -0.14565,-0.12141 -0.22013,-0.19431 -0.0724,-0.0566 -0.15195,-0.10401 -0.23823,-0.14211 -0.0884,-0.0544 -0.21524,-0.0953 -0.38137,-0.12247 0.0212,-0.0859 -0.019,-0.20477 -0.12042,-0.35708 -0.10353,-0.16866 -0.2296,-0.25986 -0.37774,-0.27285 0.0627,-0.14146 0.009,-0.30022 -0.16021,-0.47646 -0.0852,-0.0954 -0.16338,-0.198 -0.2346,-0.30748 -0.0401,0.11188 -0.0961,0.21794 -0.18709,0.31213 0.13822,0.18056 0.22929,0.37603 0.27337,0.58601 -0.1079,0.0479 -0.18077,0.11602 -0.21807,0.20412 -0.0373,0.0881 -0.0642,0.19146 -0.0811,0.31006 -0.003,0.1001 -0.004,0.21659 -0.003,0.34933 0.0154,0.11423 0.0225,0.2293 0.0217,0.34572 0.11467,0.25021 0.25797,0.472 0.42995,0.66456 0.16962,0.17624 0.22288,0.335 0.1602,0.47645 0.14817,0.013 0.27421,0.10368 0.37775,0.27234 0.10141,0.15232 0.1416,0.2716 0.12041,0.3576 0.16613,0.0272 0.29347,0.0681 0.38187,0.12247 0.0863,0.0381 0.16531,0.0855 0.23773,0.14211 0.0745,0.0729 0.14774,0.1377 0.22013,0.1943 0.0745,0.0729 0.18013,0.13297 0.31626,0.18087 0.083,-0.11096 0.17341,-0.16423 0.2713,-0.16123 0.0396,0 0.47252,0.004 0.51213,0.005 0.1192,-0.0827 0.224,-0.21322 0.3147,-0.3917 0.10668,-0.18066 0.19065,-0.34965 0.25167,-0.50747 0.19246,0.10668 0.41772,0.21692 0.67593,0.33125 0.25818,0.11433 0.50419,0.19736 0.73792,0.24856 0.23376,0.0512 0.42122,0.0586 0.56277,0.0227 0.1596,-0.0217 0.23535,-0.13155 0.22632,-0.3297 0.0839,0.0218 0.12999,0.0654 0.13798,0.13075 0.0262,0.0795 0.0815,0.13013 0.16537,0.15192 0.1714,-0.0566 0.35888,-0.11531 0.56224,-0.17621 0.21931,-0.0631 0.42177,-0.13212 0.60722,-0.20722 0.18542,-0.0751 0.34494,-0.16335 0.4785,-0.26459 0.15158,-0.0871 0.26029,-0.1931 0.3261,-0.31832 0.97194,-0.28189 1.88833,-0.68954 2.75074,-1.22215 0.87643,-0.55112 1.70841,-1.14578 2.49647,-1.78439 0.20151,-0.22675 0.33047,-0.37693 0.38706,-0.45113 0.0565,-0.0741 0.11221,-0.15652 0.16693,-0.24702 0.0547,-0.0905 0.13573,-0.23417 0.24339,-0.43149 0.10742,-0.19694 0.31279,-0.54129 0.61544,-1.03043 0.007,-0.0839 -0.005,-0.18972 -0.0362,-0.31833 -0.0328,-0.14497 -0.10901,-0.24291 -0.22892,-0.29301 0.0856,-0.1112 0.11133,-0.23899 0.0786,-0.38395 -0.0329,-0.14496 -0.0996,-0.30185 -0.2005,-0.47077 -0.0326,-0.0587 -0.0712,-0.11665 -0.10543,-0.17519 z" />
      <path
         id="path5909-49"
         style="font-size:25.4px;line-height:1.25;font-family:'Permanent Marker';-inkscape-font-specification:'Permanent Marker';fill:#ffffff;fill-opacity:0;stroke:#ffffff;stroke-width:1.37583;stroke-linecap:butt;stroke-linejoin:round;stroke-miterlimit:4;stroke-dasharray:none;stroke-opacity:1;paint-order:normal"
         d="m 166.39912,23.880336 c -0.0863,0.002 -0.17108,0.0276 -0.25424,0.0765 -0.0957,0.0461 -0.23773,0.0234 -0.42529,-0.0672 -0.47527,0.51174 -1.01714,0.99935 -1.62576,1.46296 -0.59251,0.46157 -1.18456,0.91513 -1.77662,1.36012 -0.59206,0.44499 -1.1579,0.90252 -1.69707,1.37356 -0.53916,0.47104 -0.99279,0.97236 -1.36165,1.50327 -0.17602,0.057 -0.31734,0.14245 -0.42325,0.25631 -0.10716,0.0975 -0.20468,0.20992 -0.293,0.33796 -0.0721,0.12587 -0.15179,0.26121 -0.23873,0.40567 -0.072,0.12585 -0.1764,0.25603 -0.31317,0.39067 -0.83558,0.82648 -1.53773,1.75076 -2.10738,2.77347 -0.5548,1.00412 -1.03587,2.08116 -1.44383,3.23133 0.0515,0.22519 0.0589,0.41482 0.0233,0.56896 -0.0358,0.15414 -0.0462,0.3214 -0.031,0.50178 0.0349,0.0284 0.0782,0.0559 0.1292,0.0822 0.0496,0.01 0.0696,0.0569 0.0605,0.14108 0.22527,1.71057 0.78854,3.00304 1.68519,3.87573 0.89694,0.87297 2.06433,1.24426 3.50623,1.11414 0.20881,-0.0119 0.43069,-0.0666 0.66508,-0.16484 0.2344,-0.0983 0.46324,-0.16281 0.68678,-0.19327 l 0.64699,-0.0879 c 0.25548,-0.0348 0.54057,-0.099 0.85627,-0.19172 0.0454,-0.0394 0.0745,-0.0845 0.0868,-0.13591 0.0283,-0.0536 0.0828,-0.0779 0.16383,-0.0724 0.20643,-0.0447 0.39669,-0.0951 0.56999,-0.15193 0.1733,-0.0568 0.34653,-0.11376 0.51985,-0.17053 0.17336,-0.0568 0.35518,-0.1063 0.54571,-0.14883 0.19055,-0.0425 0.42137,-0.0824 0.69299,-0.11937 0.60553,-0.33116 1.22235,-0.63039 1.84949,-0.89814 0.4231,-0.18872 0.84339,-0.37008 1.2609,-0.54363 0.21503,-0.0593 0.42913,-0.11648 0.64286,-0.17157 0.62561,-0.17793 1.23783,-0.35444 1.83452,-0.52916 0.596,-0.19122 1.1512,-0.42211 1.66708,-0.6935 0.53187,-0.27112 1.00783,-0.59122 1.42833,-0.96067 0.12983,-0.11932 0.25305,-0.24726 0.37052,-0.3824 -0.0295,0.52103 0.007,1.07916 0.10904,1.67586 0.19124,0.44839 0.42833,0.88119 0.71056,1.29967 0.29755,0.4024 0.63101,0.75734 1.00044,1.06453 0.38481,0.29123 0.81315,0.5104 1.28519,0.65888 0.48776,0.14902 1.01074,0.19417 1.57253,0.1359 0.59462,0.1571 1.10857,0.21452 1.54511,0.17054 0.45201,-0.0267 0.91191,-0.11744 1.38184,-0.27182 0.18687,0.0271 0.40494,0.0313 0.65474,0.0134 0.25008,-0.0343 0.50072,-0.0847 0.75189,-0.15089 0.25154,-0.0827 0.49554,-0.16533 0.73226,-0.24805 0.23723,-0.0992 0.44347,-0.19163 0.61857,-0.27802 0.22029,-0.0337 0.43273,-0.0672 0.63767,-0.10128 0.22059,-0.0329 0.41902,-0.1 0.59584,-0.20154 0.27541,-0.20925 0.57431,-0.38331 0.89607,-0.52142 0.3217,-0.13809 0.60052,-0.34499 0.83717,-0.62115 0.17867,-0.0833 0.33657,-0.21753 0.47437,-0.40307 0.13875,-0.20196 0.25564,-0.42257 0.34986,-0.66146 0.0952,-0.25531 0.1669,-0.5124 0.21497,-0.77205 0.0491,-0.2761 0.065,-0.53042 0.047,-0.76326 -0.0211,-0.18356 -0.0584,-0.36899 -0.11213,-0.55552 -0.0537,-0.18654 -0.11616,-0.36537 -0.18759,-0.53692 -0.0543,-0.18649 -0.10052,-0.37207 -0.13902,-0.55707 -0.0385,-0.18499 -0.044,-0.37545 -0.0165,-0.57102 -0.35587,-0.67542 -0.67525,-1.37947 -0.95599,-2.11202 -0.28001,-0.74912 -0.60812,-1.45951 -0.986,-2.13165 0.0701,-0.0606 0.0996,-0.1655 0.0889,-0.31471 -0.0134,-0.0835 -0.0622,-0.12843 -0.14676,-0.13488 -0.0838,-0.0229 -0.11504,-0.0914 -0.0935,-0.20515 0.17251,-0.0693 0.27953,-0.18451 0.32041,-0.34624 0.0585,-0.17685 0.13401,-0.34411 0.22632,-0.50177 -0.0588,-0.21897 -0.12155,-0.3641 -0.18706,-0.43512 -0.0648,-0.0874 -0.11771,-0.24814 -0.15967,-0.48214 -0.0679,-0.0217 -0.11999,-0.0174 -0.15555,0.0129 -0.0184,0.0316 -0.0614,0.0366 -0.1292,0.015 -0.0285,-0.15051 -0.0929,-0.27041 -0.19275,-0.36019 -0.0827,-0.0885 -0.17415,-0.16968 -0.27493,-0.24288 -0.10017,-0.0896 -0.19214,-0.17836 -0.27543,-0.26665 -0.0827,-0.10471 -0.13022,-0.24003 -0.1421,-0.40566 -0.18389,-0.19411 -0.40513,-0.31629 -0.66353,-0.36638 -0.24108,-0.0489 -0.46394,-0.12906 -0.66921,-0.24082 -0.22801,0.11742 -0.40346,0.23014 -0.52657,0.33797 -0.10586,0.10888 -0.23037,0.27438 -0.37208,0.49661 -0.18976,0.0218 -0.33558,0.0301 -0.43874,0.0243 -0.0859,-0.005 -0.20645,-0.003 -0.36121,0.005 -0.21029,0.23659 -0.39063,0.43835 -0.54726,0.61237 -0.1384,0.15744 -0.36161,0.2943 -0.66921,0.41083 l -0.002,0.2713 c -0.13634,0.0262 -0.25588,0.0781 -0.35812,0.15554 -0.10218,0.061 -0.20399,0.13016 -0.30594,0.20774 -0.085,0.0784 -0.17843,0.14856 -0.28006,0.20981 -0.10165,0.0613 -0.22862,0.10496 -0.38086,0.13126 -0.13478,0.22458 -0.31973,0.39734 -0.55502,0.51935 -0.21857,0.10624 -0.38537,0.28059 -0.50072,0.52296 -0.0839,0.0132 -0.15939,0.052 -0.22585,0.11524 -0.0497,0.0639 -0.0989,0.13608 -0.1483,0.21652 -0.0496,0.064 -0.10779,0.11946 -0.17415,0.1664 -0.0498,0.0311 -0.12488,0.028 -0.22582,-0.008 -0.44506,0.51088 -0.90234,1.03843 -1.37099,1.58389 -0.4689,0.52888 -0.88178,1.11837 -1.23971,1.76733 -0.12181,0.22543 -0.2322,0.46 -0.33176,0.7028 -0.27771,-0.13745 -0.51758,-0.30562 -0.71882,-0.50488 -0.20365,-0.20164 -0.40746,-0.40346 -0.61238,-0.60461 -0.20555,-0.21761 -0.41984,-0.41862 -0.6418,-0.60307 -0.2227,-0.2009 -0.48551,-0.36936 -0.78912,-0.50488 -0.32237,-0.18508 -0.67058,-0.36967 -1.04436,-0.55397 -0.37462,-0.20072 -0.74173,-0.39245 -1.10072,-0.57516 -0.35901,-0.18274 -0.70207,-0.36484 -1.02939,-0.54622 -0.32737,-0.18139 -0.60497,-0.35367 -0.83251,-0.5178 -0.11478,0.0785 -0.22916,0.1571 -0.34364,0.23565 -0.52978,0.44872 -1.05873,0.89709 -1.587,1.34566 -0.0209,0.1686 -0.0597,0.31501 -0.11626,0.43873 -0.0566,0.12373 -0.0869,0.27709 -0.0904,0.45992 0.0669,0.0241 0.10758,0.0185 0.12144,-0.0165 0.03,-0.0372 0.0436,-0.0721 0.0413,-0.1049 0.0139,-0.035 0.0274,-0.0704 0.0414,-0.10542 0.0139,-0.035 0.0627,-0.0415 0.1457,-0.0196 0.11872,0.0668 0.18211,0.16576 0.19122,0.29714 0.009,0.13138 -0.0391,0.25406 -0.14521,0.36794 0.0596,0.38973 0.17844,0.69696 0.35655,0.92139 0.19426,0.22226 0.42532,0.38949 0.693,0.50229 -0.0588,0.0909 -0.14152,0.18523 -0.24857,0.28267 -0.0921,0.0788 -0.0868,0.16108 0.0165,0.2465 0.22977,0.0351 0.49334,0.0903 0.79066,0.16588 -0.96338,0.3962 -1.90974,0.79019 -2.83912,1.18184 -0.93051,0.37522 -1.93714,0.69466 -3.02048,0.95808 -0.0778,0.0437 -0.12136,0.10748 -0.13126,0.19172 -0.01,0.0843 -0.0454,0.15546 -0.10594,0.21343 -0.53832,-0.0428 -1.07034,-0.004 -1.59628,0.11782 -0.52721,0.10488 -1.09733,0.18237 -1.70998,0.23254 -0.0386,-0.0777 -0.0923,-0.14516 -0.16174,-0.20205 -0.0534,-0.0591 -0.0998,-0.1275 -0.13848,-0.20516 0.26199,-0.58288 0.58843,-1.18244 0.97925,-1.79937 0.38955,-0.63334 0.81415,-1.24661 1.27384,-1.83968 0.45841,-0.60948 0.93641,-1.18845 1.43401,-1.73685 0.51377,-0.55059 1.02322,-1.059 1.5286,-1.52549 0.50536,-0.4665 1.01532,-0.884 1.52911,-1.25212 0.5288,-0.38674 1.04365,-0.74685 1.54459,-1.08004 0.008,-0.005 1.01827,-0.65916 1.02579,-0.66404 0.15316,-0.0751 0.30387,-0.14847 0.45114,-0.22014 0.49016,-0.24732 0.93122,-0.50178 1.32291,-0.76378 -0.0417,-0.1316 -0.0471,-0.22154 -0.016,-0.27078 0.0471,-0.0656 0.0678,-0.14787 0.062,-0.2465 -0.007,-0.11506 -0.0694,-0.17288 -0.18862,-0.17311 -0.11912,-2.2e-4 -0.18222,-0.0575 -0.18913,-0.1726 0.15325,1.9e-4 0.22757,-0.0408 0.22273,-0.12299 -0.005,-0.0822 -0.0272,-0.17262 -0.0672,-0.2713 -0.04,-0.0987 -0.071,-0.18909 -0.093,-0.27131 -0.005,-0.0822 0.0524,-0.1232 0.17209,-0.12298 -0.13711,-0.29613 -0.3307,-0.5266 -0.58084,-0.69092 -0.23397,-0.18074 -0.4921,-0.32813 -0.77412,-0.44235 -0.19849,-0.0976 -0.39661,-0.19055 -0.59478,-0.27854 -0.0641,-0.0218 -0.12822,-0.0429 -0.19225,-0.0636 -0.23725,-0.10046 -0.43997,-0.29696 -0.60822,-0.58911 -0.0291,-0.004 -0.058,-0.006 -0.0868,-0.005 z m 40.5252,3.66747 c -0.69043,0.0297 -1.23997,0.30217 -1.64695,0.81184 -0.33595,0.41049 -0.62622,0.9006 -0.87331,1.46761 -0.13558,-0.0451 -0.2794,-0.0882 -0.43307,-0.12816 -0.22249,-0.0579 -0.45527,-0.1088 -0.69813,-0.15244 -0.55513,-0.0998 -1.14197,-0.16805 -1.75909,-0.20464 -0.59978,-0.0337 -1.19978,-0.0555 -1.79988,-0.0656 -0.40738,0.003 -0.81296,-2.7e-4 -1.21698,-0.0103 -0.38454,-0.0235 -0.76898,-0.0455 -1.15289,-0.0661 -0.0762,-0.0937 -0.17846,-0.19073 -0.30697,-0.29146 -0.10919,-0.11463 -0.32097,-0.18548 -0.63458,-0.21084 -0.0913,0.0293 -0.18274,0.0584 -0.27389,0.0878 -0.0841,0.12159 -0.16881,0.25156 -0.25424,0.38964 -0.38293,-0.017 -0.75682,-0.0312 -1.12191,-0.0434 -0.3479,-0.01 -0.69599,-0.0192 -1.04334,-0.0269 -0.6069,-0.0218 -1.19631,-0.038 -1.76733,-0.0496 -0.56992,-0.028 -1.1293,-0.0684 -1.67897,-0.12195 -0.24045,-0.0234 -0.48099,-0.0463 -0.72141,-0.0687 -0.1111,-0.0186 -0.22217,-0.0373 -0.3333,-0.0558 -0.0333,0.12075 -0.0661,0.24148 -0.0992,0.36225 -0.0372,0.0461 -0.0838,0.0997 -0.13901,0.16071 -0.0552,0.061 -0.0951,0.15647 -0.11988,0.28629 -0.0155,0.26265 -0.003,0.49502 0.0356,0.6966 0.0572,0.18673 0.11493,0.365 0.17261,0.53536 0.0268,0.11801 0.054,0.2281 0.0817,0.3297 0.0287,0.0852 0.0487,0.17745 0.0594,0.2775 0.0697,0.10551 0.13888,0.21119 0.20825,0.31678 0.0661,0.0227 0.19219,0.17493 0.37568,0.45682 0.14534,0.0966 0.2834,0.16838 0.41498,0.21446 0.13271,0.0297 0.25754,0.0502 0.37465,0.062 0.0418,0.004 0.0837,0.008 0.12557,0.0129 0.0514,-0.0113 0.0936,-0.0154 0.12713,-0.0119 0.0837,0.009 0.16748,0.0177 0.25114,0.0264 0.19238,0.0201 0.38484,0.0403 0.57722,0.061 0.10437,-0.0383 0.24037,-0.0485 0.40772,-0.03 0.0335,0.004 0.0662,0.0156 0.0982,0.0357 0.0502,0.006 0.1007,0.0114 0.15089,0.017 0.0837,0.009 0.16698,0.0184 0.25064,0.0279 0.21749,0.0247 0.42209,0.007 0.61391,-0.0532 0.0487,0.0223 0.13139,0.0404 0.24858,0.0543 0.0837,0.01 0.16745,0.0199 0.25114,0.03 0.0853,-0.006 0.17904,-0.0114 0.28112,-0.0155 0.0853,-0.006 0.16999,-0.004 0.25373,0.006 0.0854,-0.006 0.17807,-0.003 0.27853,0.0103 -0.042,0.0777 -0.0937,0.17022 -0.15555,0.27854 -0.0435,0.094 -0.0964,0.195 -0.15811,0.30334 -0.10165,0.16963 -0.20294,0.3397 -0.30388,0.50953 -0.0829,0.15595 -0.19452,0.35679 -0.33588,0.60513 -0.0823,0.0728 -0.16452,0.1456 -0.24652,0.21859 -0.13332,0.34829 -0.28175,0.68645 -0.44439,1.01492 -0.16116,0.31211 -0.32099,0.6248 -0.48009,0.93741 -0.28136,0.57989 -0.55351,1.18565 -0.81648,1.81798 -0.2632,0.63291 -0.4147,1.42567 -0.46148,2.38022 0.0546,0.10524 0.0918,0.22509 0.11216,0.35967 0.0359,0.1363 0.0634,0.28001 0.0821,0.43098 0.0159,0.18373 0.0392,0.36797 0.0703,0.55345 0.0466,0.18722 0.11793,0.36108 0.21291,0.5209 l -0.0258,0.29456 c 0.0656,0.0489 0.13091,0.0983 0.19635,0.14727 0.11737,0.0801 0.27027,0.17998 0.46045,0.30231 0.0521,0.10557 0.11486,0.17968 0.18809,0.22169 0.0734,0.0421 0.16844,0.0949 0.28578,0.15917 0.0104,0.051 0.0494,0.1221 0.11732,0.21342 0.0913,0.0114 0.18261,0.0226 0.27387,0.0341 0.54723,0.0693 0.95091,-0.0339 1.21441,-0.31368 0.24421,-0.24877 0.35713,-0.61491 0.33432,-1.09916 -0.0599,-0.0912 -0.12009,-0.18229 -0.18034,-0.27337 -0.11609,-0.082 -0.20245,-0.15149 -0.25889,-0.20877 -0.0446,-0.0225 -0.10951,-0.0728 -0.19534,-0.15038 -0.007,-0.0838 -0.0305,-0.15313 -0.0718,-0.20825 -0.0258,-0.0531 -0.0586,-0.11564 -0.0982,-0.18707 -0.003,-0.11644 0.0284,-0.26978 0.0961,-0.45992 0.0243,-0.0797 0.0485,-0.15953 0.0729,-0.23926 0.0261,-0.0961 0.0359,-0.18595 0.0289,-0.26975 0.0835,-0.0389 0.13428,-0.13984 0.15192,-0.30334 0.004,-0.0327 0.0166,-0.0808 0.0393,-0.14418 0.0246,-0.0797 0.0573,-0.15854 0.0977,-0.23616 0.11409,-0.16744 0.18915,-0.33956 0.22479,-0.51728 0.0687,-0.0407 0.11356,-0.0848 0.13486,-0.13178 0.0231,-0.0633 0.088,-0.13746 0.19431,-0.22273 0.0428,-0.0938 0.0857,-0.18736 0.12867,-0.28112 0.07,-0.18959 0.16788,-0.40905 0.29406,-0.65732 0.12811,-0.26469 0.30302,-0.50637 0.52554,-0.7245 0.0976,-0.26873 0.2077,-0.5026 0.33073,-0.70125 0.14115,-0.21262 0.30919,-0.43815 0.50487,-0.67593 0.13867,-0.31246 0.27528,-0.59987 0.40929,-0.863 0.15253,-0.27707 0.31292,-0.54469 0.48162,-0.80253 0.16656,-0.2415 0.32673,-0.49212 0.48059,-0.75189 0.15383,-0.25978 0.31427,-0.55991 0.48109,-0.90072 0.25432,0.0219 0.53457,0.0403 0.84183,0.0553 0.32395,0.0177 0.65775,0.0297 1.00147,0.0362 0.4807,0.0123 0.96904,0.0363 1.46502,0.0729 0.49872,0.0203 0.95917,0.07 1.37978,0.14779 0.0964,0.0178 0.18365,0.0418 0.26199,0.0718 -0.14121,0.5423 -0.29694,1.0428 -0.46662,1.49965 -0.08,-0.0317 -0.15507,-0.0458 -0.22429,-0.0419 -0.0497,-0.009 -0.0882,0.0173 -0.11628,0.0791 0.0404,0.15829 0.037,0.36719 -0.009,0.62683 -0.0433,0.24339 -0.11266,0.48997 -0.20775,0.74053 -0.0951,0.25053 -0.22145,0.48743 -0.37774,0.71003 -0.14005,0.22556 -0.29515,0.39799 -0.46562,0.5178 -0.0858,0.40321 -0.21976,0.84738 -0.401,1.33377 -0.17841,0.46996 -0.45405,0.88911 -0.8227,1.25884 0.0417,0.14111 0.0467,0.25875 0.015,0.35346 -0.0318,0.0947 -0.0792,0.18673 -0.14211,0.27596 -0.0473,0.092 -0.096,0.19246 -0.14573,0.30075 -0.0498,0.10833 -0.0733,0.25443 -0.0713,0.43874 -0.0516,-0.076 -0.10464,-0.0938 -0.15917,-0.0532 -0.0364,0.0271 -0.0691,0.08 -0.0977,0.15865 -0.0441,0.0759 -0.0816,0.16144 -0.11263,0.25631 -0.0285,0.0786 -0.0698,0.13804 -0.12404,0.1788 0.10565,0.33557 0.16386,0.61377 0.17571,0.83303 0.0272,0.22225 0.11899,0.48055 0.27387,0.77617 -0.0555,-0.0434 -0.10916,-0.0528 -0.16017,-0.0284 -0.0358,0.0271 -0.0652,0.0636 -0.0884,0.10956 -0.008,0.0488 -0.008,0.099 -0.001,0.15038 0.007,0.0515 0.035,0.0732 0.0832,0.0651 -0.008,0.0488 0.0217,0.10401 0.0894,0.1664 0.0677,0.0624 0.14195,0.13451 0.22169,0.216 0.0949,0.0843 0.17897,0.1835 0.25271,0.29766 0.0765,0.0979 0.10491,0.20364 0.0853,0.31729 0.31184,0.25924 0.58508,0.41234 0.82423,0.45889 0.25101,0.0657 0.48983,0.0711 0.71726,0.016 0.22437,-0.039 0.4463,-0.10292 0.66612,-0.19224 0.23476,-0.0862 0.48802,-0.14291 0.75911,-0.1695 0.053,-0.10682 0.0679,-0.17983 0.0444,-0.21859 -0.0201,-0.0549 -0.0369,-0.12566 -0.0506,-0.2129 0.13213,0.0449 0.27795,-0.017 0.43873,-0.18501 0.17585,-0.16473 0.34237,-0.35653 0.49972,-0.57567 0.16079,-0.23536 0.30353,-0.45731 0.42839,-0.66663 0.12491,-0.20941 0.19315,-0.33794 0.20362,-0.38654 0.26062,-0.0942 0.60047,-0.20554 1.01648,-0.33021 0.16981,-0.0536 0.3429,-0.10357 0.51932,-0.14986 0.27752,-0.0727 0.5629,-0.13613 0.85577,-0.19069 0.49922,-0.10179 1.00177,-0.17428 1.50688,-0.21652 0.50517,-0.0422 0.98126,-0.0285 1.42629,0.0413 -0.004,0.016 -0.0583,0.12176 -0.16073,0.31678 -0.0828,0.18326 -0.17709,0.37988 -0.28319,0.59118 -0.0908,0.21535 -0.17909,0.42314 -0.26508,0.6227 -0.0817,0.18358 -0.12441,0.28322 -0.12869,0.2992 -0.13918,0.45938 -0.15238,0.90082 -0.0455,1.32395 0.12607,0.41139 0.28914,0.81648 0.48731,1.21646 -0.0564,0.0614 -0.11274,0.123 -0.16899,0.18449 0.15933,0.0964 0.27985,0.2166 0.36174,0.3607 0.10078,0.13238 0.20799,0.2667 0.32091,0.40359 0.32941,-0.0233 0.66077,-0.0518 0.99476,-0.0858 0.35282,-0.0453 0.67659,-0.14009 0.97308,-0.28577 0.31554,-0.15666 0.59055,-0.36916 0.82476,-0.6382 0.25331,-0.27948 0.45265,-0.66582 0.59169,-1.15962 -0.0377,-0.31082 -0.0118,-0.55497 0.0822,-0.73277 0.11374,-0.18809 0.17955,-0.40153 0.19534,-0.64079 0.17637,-0.0793 0.342,-0.19663 0.49713,-0.35244 0.15518,-0.15582 0.29657,-0.3161 0.42322,-0.48162 0.1473,-0.17575 0.29232,-0.34357 0.43564,-0.50281 0.14896,-0.1748 0.31073,-0.30943 0.48472,-0.40411 0.15412,-0.31544 0.31406,-0.61837 0.48112,-0.90847 0.21259,-0.36912 0.43677,-0.718 0.6723,-1.0449 0.44133,-0.59167 0.87731,-1.20822 1.29916,-1.8402 0.21749,-0.60789 0.41624,-1.19508 0.59634,-1.76423 0.18606,-0.58455 0.35539,-1.15658 0.50851,-1.71824 -0.18198,-0.25428 -0.32269,-0.5196 -0.42376,-0.7984 -0.0349,-0.0964 -0.065,-0.19417 -0.091,-0.29404 -0.0833,-0.38224 -0.15505,-0.77684 -0.21498,-1.18391 -0.0544,-0.42266 -0.11467,-0.83801 -0.18034,-1.2454 -0.0657,-0.40734 -0.1697,-0.80065 -0.31263,-1.17977 -0.4372,-0.0593 -0.8377,0.002 -1.19941,0.18138 -0.35676,0.16372 -0.66021,0.39822 -0.91263,0.70073 -0.23428,0.30818 -0.4219,0.6661 -0.56533,1.07177 -0.13856,0.38977 -0.20963,0.78286 -0.21601,1.17874 -0.15028,-0.0118 -0.27736,0.0273 -0.38084,0.11679 -0.1035,0.0895 -0.21915,0.1583 -0.34726,0.20619 -0.10528,0.79733 -0.35129,1.54323 -0.72504,2.24276 -0.37365,0.69935 -0.71972,1.41612 -1.04024,2.14922 -0.48498,0.082 -0.98983,0.12816 -1.51619,0.13901 -0.51007,0.0153 -1.03045,0.0154 -1.56062,5.2e-4 -0.51036,-0.0269 -1.03664,-0.0452 -1.58028,-0.0548 -0.23175,-0.01 -0.46011,-0.0161 -0.68574,-0.0196 -0.28459,-0.004 -0.56476,-0.004 -0.83974,10e-4 0.10046,-0.14693 0.10462,-0.23926 0.0109,-0.27698 -0.09,-0.0538 -0.1343,-0.12296 -0.1328,-0.20722 0.15211,-0.30489 0.32079,-0.68206 0.50695,-1.13172 0.20256,-0.44597 0.402,-0.90981 0.59788,-1.39113 0.21259,-0.47769 0.39991,-0.95238 0.5607,-1.42472 0.17777,-0.46875 0.31811,-0.88603 0.42013,-1.25315 -0.12427,-0.4004 -0.27569,-0.77176 -0.4532,-1.11466 -0.17751,-0.34287 -0.35687,-0.68576 -0.53848,-1.02784 -0.16415,-0.33839 -0.3197,-0.68268 -0.46662,-1.03302 -0.12933,-0.34666 -0.21508,-0.73456 -0.25683,-1.16375 z m -59.36332,1.63763 c -0.1995,0.15975 -0.35097,0.30448 -0.45424,0.4346 -0.087,0.12792 -0.18478,0.31574 -0.29353,0.56275 -0.17573,0.057 -0.31228,0.0917 -0.40978,0.1049 -0.0813,0.011 -0.19426,0.0351 -0.33899,0.0713 -0.17206,0.27228 -0.32244,0.50785 -0.45167,0.70796 -0.11446,0.18143 -0.31199,0.35747 -0.59169,0.52814 l 0.0258,0.27027 c -0.1267,0.0504 -0.23452,0.12349 -0.324,0.21859 -0.0911,0.0787 -0.18191,0.16535 -0.27131,0.26045 -0.0732,0.0929 -0.15499,0.17865 -0.24598,0.25735 -0.091,0.0787 -0.20815,0.14438 -0.35089,0.19688 -0.1075,0.24689 -0.2681,0.45161 -0.48215,0.6134 -0.19944,0.14322 -0.34375,0.34514 -0.43305,0.60617 -0.0793,0.0274 -0.1484,0.0781 -0.20669,0.15244 -0.0421,0.0721 -0.083,0.15231 -0.12351,0.24081 -0.0421,0.0721 -0.0931,0.13692 -0.15298,0.19483 -0.0453,0.0397 -0.11827,0.0496 -0.21857,0.03 -0.3851,0.58338 -0.78396,1.18472 -1.19631,1.80505 -0.41397,0.60389 -0.77269,1.25857 -1.07643,1.96371 -0.28927,0.6866 -0.49007,1.4276 -0.60357,2.22312 -0.1152,0.77919 -0.0602,1.6259 0.16433,2.54145 0.22183,0.41793 0.48975,0.81327 0.80357,1.18545 0.32813,0.35363 0.69109,0.65249 1.08831,0.89711 0.41153,0.22607 0.86307,0.37251 1.35496,0.43821 0.50786,0.0636 1.04465,0.0149 1.61126,-0.14521 0.61928,0.0484 1.14897,0.01 1.58956,-0.11679 0.4581,-0.11219 0.91824,-0.29094 1.38028,-0.5364 0.19314,-0.01 0.41576,-0.0487 0.66818,-0.11627 0.2509,-0.0839 0.5003,-0.18402 0.74826,-0.30076 0.24649,-0.13311 0.48504,-0.26539 0.71573,-0.39636 0.22918,-0.14734 0.42735,-0.28183 0.59428,-0.4041 0.21931,-0.0797 0.43066,-0.15815 0.63407,-0.23565 0.2194,-0.0797 0.41204,-0.18894 0.57775,-0.32763 0.25146,-0.26648 0.52993,-0.50357 0.8356,-0.71107 0.30565,-0.20748 0.55738,-0.47383 0.75602,-0.79943 0.16764,-0.12235 0.30734,-0.29069 0.41858,-0.50488 0.10985,-0.23058 0.19412,-0.47437 0.25323,-0.73122 0.0577,-0.27324 0.0913,-0.54307 0.10128,-0.80977 0.008,-0.2831 -0.0133,-0.53757 -0.0651,-0.76274 -0.0476,-0.17599 -0.1115,-0.34982 -0.19122,-0.52142 -0.0798,-0.17161 -0.16645,-0.33377 -0.26096,-0.48679 -0.0799,-0.1716 -0.15221,-0.34402 -0.216,-0.5178 -0.0638,-0.17378 -0.0958,-0.36021 -0.0966,-0.55914 -0.44177,-0.58684 -0.84693,-1.21214 -1.21544,-1.87534 -0.36997,-0.67962 -0.77785,-1.31259 -1.22317,-1.8991 0.0589,-0.0743 0.0737,-0.18439 0.0444,-0.3297 -0.0234,-0.0797 -0.0756,-0.11384 -0.15658,-0.10284 -0.0825,-0.005 -0.1207,-0.0665 -0.11472,-0.18345 0.15476,-0.10394 0.24101,-0.24045 0.25892,-0.40876 0.0326,-0.1869 0.0822,-0.36768 0.14883,-0.5426 -0.0837,-0.20428 -0.16081,-0.33491 -0.23151,-0.39171 -0.0722,-0.0731 -0.1428,-0.22104 -0.21188,-0.4439 -0.0665,-0.008 -0.11459,0.007 -0.14417,0.0444 -0.0133,0.0351 -0.053,0.0493 -0.11938,0.0413 -0.0456,-0.1431 -0.12105,-0.2491 -0.22582,-0.31781 -0.0886,-0.0709 -0.18447,-0.1327 -0.28784,-0.185 -0.10486,-0.0687 -0.20132,-0.13839 -0.28991,-0.20929 -0.0901,-0.0873 -0.15091,-0.21195 -0.1819,-0.37362 -0.19515,-0.15607 -0.41653,-0.23388 -0.66352,-0.23357 -0.23074,-0.002 -0.44789,-0.0388 -0.65217,-0.11059 z m -23.98459,0.23719 c -0.10837,0.0645 -0.24331,0.1155 -0.40462,0.154 -0.16328,0.0222 -0.33457,0.0455 -0.51417,0.0698 -0.17962,0.0244 -0.35033,0.0562 -0.5116,0.0946 -0.16327,0.0221 -0.29786,0.0732 -0.40412,0.154 -0.8713,0.0682 -1.67966,0.24407 -2.42414,0.52761 -0.74652,0.2672 -1.40163,0.53049 -1.96577,0.78962 -0.0899,-0.0543 -0.13267,-0.0646 -0.12867,-0.032 0.004,0.0327 -0.0447,0.039 -0.14677,0.0196 -0.46042,0.16204 -0.93527,0.3425 -1.42367,0.54157 -0.48842,0.19906 -0.94644,0.43554 -1.37461,0.70952 -0.41188,0.27178 -0.77632,0.5871 -1.09294,0.94568 -0.31883,0.34228 -0.52991,0.74457 -0.63304,1.20716 0.36888,0.64776 0.80647,1.19483 1.31206,1.64125 0.52184,0.44421 1.14094,0.759 1.85778,0.94412 0.16959,-0.0895 0.36893,-0.14156 0.59787,-0.15606 0.22683,-0.0308 0.40447,-0.12092 0.53333,-0.2713 -0.004,-0.28191 0.0405,-0.51226 0.13279,-0.69092 0.10856,-0.18084 0.29893,-0.30662 0.57052,-0.37672 0.10702,0.3177 0.15187,0.60274 0.13486,0.85421 -0.017,0.25148 -0.0595,0.49777 -0.12711,0.73949 -0.0535,0.22321 -0.1058,0.45449 -0.15711,0.69402 -0.0509,0.23953 -0.0491,0.5052 0.005,0.79685 -0.13256,0.49969 -0.21095,0.90896 -0.23514,1.22783 -0.0242,0.31891 -0.0502,0.6217 -0.0786,0.90796 -0.0143,0.26774 -0.0508,0.55501 -0.10904,0.86196 -0.0604,0.29066 -0.18436,0.6562 -0.37208,1.09709 0.0108,0.0816 0.0343,0.13655 0.0708,0.16485 0.0365,0.0283 0.0741,0.065 0.11266,0.10955 -0.12972,0.13393 -0.2151,0.2949 -0.2558,0.48318 -0.0428,0.17196 -0.0763,0.35084 -0.10075,0.53691 -0.009,0.18391 -0.0251,0.36893 -0.0496,0.55501 -0.0266,0.16975 -0.10429,0.3219 -0.23357,0.45579 0.13822,0.18055 0.22937,0.37551 0.27337,0.58549 -0.1079,0.0479 -0.18077,0.11602 -0.21807,0.20412 -0.0373,0.0881 -0.0642,0.19146 -0.0811,0.31006 -0.003,0.1001 -0.004,0.21659 -0.003,0.34933 0.0154,0.11423 0.022,0.22982 0.0212,0.34624 0.11467,0.2502 0.2585,0.47148 0.43048,0.66404 0.16962,0.17624 0.22288,0.335 0.1602,0.47646 0.14817,0.013 0.27421,0.10419 0.37775,0.27285 0.10141,0.15231 0.1416,0.27118 0.12041,0.35708 0.16613,0.0272 0.29297,0.0681 0.38137,0.12247 0.0863,0.0381 0.16581,0.0855 0.23823,0.14211 0.0745,0.0729 0.14774,0.13771 0.22013,0.19431 0.0745,0.0729 0.18013,0.13348 0.31626,0.18138 0.083,-0.11096 0.17341,-0.16475 0.2713,-0.16175 0.0396,0 0.47263,0.005 0.51213,0.005 0.1192,-0.0827 0.224,-0.21323 0.3147,-0.39171 0.10668,-0.18066 0.19065,-0.35016 0.25167,-0.50798 0.19246,0.10668 0.41772,0.21744 0.67593,0.33177 0.25818,0.11432 0.50419,0.19684 0.73792,0.24805 0.23376,0.0512 0.42122,0.0591 0.56277,0.0232 0.1596,-0.0217 0.23535,-0.13208 0.22632,-0.33021 0.0839,0.0218 0.12999,0.0654 0.13798,0.13074 0.0262,0.0795 0.0815,0.13013 0.16537,0.15193 0.1714,-0.0566 0.35888,-0.11532 0.56224,-0.17622 0.21931,-0.0631 0.42177,-0.13212 0.60722,-0.20722 0.18542,-0.0751 0.34491,-0.16335 0.4785,-0.26459 0.15158,-0.0871 0.26029,-0.1931 0.3261,-0.31832 0.97194,-0.28188 1.88833,-0.68902 2.75074,-1.22163 0.87643,-0.55113 1.70841,-1.1463 2.49647,-1.78491 0.20151,-0.22675 0.33047,-0.37693 0.38706,-0.45113 0.0565,-0.0741 0.11221,-0.156 0.16693,-0.2465 0.0547,-0.0905 0.13573,-0.23468 0.24339,-0.43202 0.10742,-0.19694 0.31279,-0.54077 0.61544,-1.02991 0.007,-0.0839 -0.005,-0.19023 -0.0362,-0.31884 -0.0328,-0.14497 -0.10901,-0.24239 -0.22892,-0.29249 0.0856,-0.1112 0.11133,-0.23951 0.0786,-0.38447 -0.0329,-0.14496 -0.10012,-0.30185 -0.20103,-0.47077 -0.10279,-0.18526 -0.21328,-0.36936 -0.33229,-0.55242 -0.10477,-0.2016 -0.19275,-0.39743 -0.26352,-0.58705 -0.16481,-0.0108 -0.27684,-0.062 -0.33642,-0.15348 -0.19307,-0.25602 -0.42291,-0.47354 -0.68937,-0.65319 -0.25223,-0.19819 -0.51888,-0.3779 -0.79994,-0.53898 -0.28107,-0.16107 -0.56245,-0.32215 -0.84389,-0.48318 -0.2672,-0.17957 -0.51239,-0.37858 -0.73536,-0.59738 0.24636,-0.41539 0.5207,-0.80984 0.82217,-1.18287 0.31766,-0.37521 0.60931,-0.7634 0.8754,-1.16479 0.26418,-0.41773 0.46847,-0.8608 0.61238,-1.3286 0.16012,-0.46997 0.19732,-1.00603 0.11162,-1.60869 -0.0419,-0.0773 -0.1044,-0.11902 -0.18759,-0.12402 -0.0832,-0.005 -0.12231,-0.0584 -0.11731,-0.15865 -0.0282,-0.24523 -0.11846,-0.45709 -0.27131,-0.63562 -0.13657,-0.18072 -0.31218,-0.33947 -0.52657,-0.47645 -0.19812,-0.13919 -0.41177,-0.26814 -0.64079,-0.38654 -0.21463,-0.13696 -0.40577,-0.28504 -0.57362,-0.44494 -0.14674,0.0198 -0.29102,-0.0105 -0.43304,-0.0909 -0.12571,-0.0826 -0.26906,-0.17111 -0.42942,-0.26561 -0.146,-0.11306 -0.30623,-0.20781 -0.48112,-0.28371 -0.17486,-0.0758 -0.36862,-0.0996 -0.58084,-0.0708 -0.0778,0.0437 -0.0787,0.10228 -0.004,0.17518 0.0733,0.0565 0.076,0.0804 0.009,0.0734 -0.22974,-0.1183 -0.44342,-0.17246 -0.6413,-0.16227 -0.19984,-0.006 -0.35586,-0.0596 -0.46768,-0.16071 z m 12.21582,1.78129 c -0.24398,0.0331 -0.45107,0.10271 -0.62117,0.20877 -0.15385,0.10385 -0.29805,0.22273 -0.43201,0.35709 -0.11948,0.11579 -0.23712,0.24837 -0.35295,0.39687 -0.11584,0.1485 -0.24122,0.28149 -0.37672,0.39946 0.0627,0.27369 0.0429,0.55008 -0.0584,0.82941 -0.0869,0.26079 -0.1637,0.46221 -0.23048,0.60409 -0.0632,0.17457 -0.0804,0.31817 -0.0517,0.43047 0.0449,0.11011 0.0532,0.2584 0.0243,0.44493 -0.007,0.084 -0.0497,0.1475 -0.12713,0.19121 -0.0792,0.0273 -0.1233,0.075 -0.1323,0.14262 -0.0199,0.11889 0.002,0.24058 0.0646,0.36484 0.0791,0.12207 0.11078,0.25871 0.0946,0.41031 -0.0559,0.68819 -0.16298,1.35853 -0.32038,2.01073 -0.14129,0.65004 -0.23006,1.32606 -0.26665,2.0283 -0.005,0.2497 1.9e-4,0.51456 0.015,0.79478 0.029,0.26167 0.05,0.52472 0.0631,0.78858 0.0289,0.26167 0.0417,0.52565 0.0388,0.79169 0.0112,0.2475 -0.0124,0.47445 -0.0708,0.68161 0.0951,0.26923 0.20249,0.57876 0.32248,0.92759 0.13602,0.34672 0.28101,0.7005 0.4346,1.06144 0.15174,0.34457 0.31031,0.67955 0.47594,1.00562 0.16563,0.32606 0.34086,0.5927 0.52554,0.79995 0.29265,0.01 0.59777,-0.0145 0.91519,-0.0744 0.31742,-0.0598 0.58767,-0.17981 0.81132,-0.35967 0.24138,-0.16568 0.41143,-0.3964 0.50953,-0.69195 0.11412,-0.2977 0.10489,-0.68641 -0.0274,-1.16634 -0.22942,-0.78213 -0.36999,-1.56827 -0.42169,-2.35799 -0.0357,-0.79191 -0.0145,-1.58311 0.0646,-2.37402 0.0774,-0.80726 0.19621,-1.61183 0.35708,-2.4138 0.17698,-0.80415 0.37013,-1.61872 0.57928,-2.44378 -0.13459,-0.0315 -0.24175,-0.11679 -0.32195,-0.25528 -0.0657,-0.15705 -0.11631,-0.32449 -0.15139,-0.5023 -0.0368,-0.19417 -0.0657,-0.38912 -0.0863,-0.58549 -0.0207,-0.19637 -0.0379,-0.36001 -0.0517,-0.49093 -0.20497,-0.0718 -0.35637,-0.1843 -0.45477,-0.33693 -0.10014,-0.16899 -0.18526,-0.34821 -0.25476,-0.53795 -0.0533,-0.19195 -0.11436,-0.38283 -0.18397,-0.57258 -0.0533,-0.19195 -0.15377,-0.36095 -0.30125,-0.50694 z m 47.91334,1.33428 c 0.32139,0.53122 0.60449,1.10188 0.85058,1.71205 0.24654,0.59361 0.54031,1.15843 0.88006,1.69446 -0.006,0.16438 -0.002,0.28818 0.0109,0.37156 0.0138,0.067 0.0592,0.16934 0.13538,0.30695 -0.0249,0.22892 -0.0962,0.39663 -0.21341,0.50333 -0.1011,0.10794 -0.18672,0.25013 -0.25736,0.42634 -0.54089,0.2409 -1.05524,0.48625 -1.54252,0.73483 -0.48702,0.23219 -1.06651,0.41027 -1.73942,0.53744 -0.31951,-0.0178 -0.67144,0.005 -1.05524,0.0677 -0.36777,0.0473 -0.75105,0.078 -1.15033,0.093 -0.3833,0.0156 -0.75877,-0.009 -1.12707,-0.0723 -0.36822,-0.0641 -0.6899,-0.21612 -0.96634,-0.45631 0.01,-0.3946 0.0762,-0.73767 0.20103,-1.02939 0.12475,-0.29166 0.27474,-0.56555 0.45008,-0.82217 0.17534,-0.25662 0.3515,-0.50495 0.52867,-0.74466 0.1933,-0.2555 0.35486,-0.53667 0.48421,-0.84388 0.0817,-0.0294 0.13081,-0.0358 0.14727,-0.0186 0.0164,7.2e-4 0.0576,-0.0138 0.12298,-0.0439 0.37523,-0.46096 0.8029,-0.86144 1.28365,-1.19992 0.48075,-0.33848 0.9648,-0.68315 1.45261,-1.03457 0.0823,0.0705 0.17286,0.13301 0.27184,0.18811 0.11583,0.0396 0.22357,0.0706 0.32297,0.093 0.0997,0.006 0.19135,-0.0131 0.27543,-0.0574 0.0844,-0.0608 0.14486,-0.15622 0.18087,-0.28578 0.0979,0.10484 0.18865,0.12724 0.27337,0.0667 0.0847,-0.0606 0.14494,-0.12287 0.17984,-0.18656 z m -59.34676,0.4899 c -0.40065,0.65213 -0.86286,1.26262 -1.387,1.83193 -0.52615,0.55297 -1.15863,1.0373 -1.89756,1.45314 -0.2231,-0.33513 -0.52644,-0.58438 -0.91003,-0.74828 -0.36733,-0.16608 -0.73092,-0.3659 -1.09088,-0.59944 0.61373,-0.4985 1.3952,-0.91996 2.34405,-1.26453 0.94879,-0.34456 1.92947,-0.56883 2.94142,-0.67282 z m 23.69003,1.73994 c 0.36986,0.46407 0.71054,0.97369 1.02214,1.52859 0.31009,0.53849 0.66489,1.03766 1.06455,1.49758 0.0147,0.16389 0.0339,0.28556 0.0574,0.36536 0.022,0.0634 0.079,0.15524 0.17105,0.27543 0.004,0.23163 -0.0445,0.41258 -0.14676,0.5426 -0.0862,0.12784 -0.15304,0.28589 -0.20103,0.47491 -0.50507,0.35071 -0.98589,0.69826 -1.44177,1.04231 -0.45736,0.32768 -1.01468,0.61943 -1.67278,0.87489 -0.3207,0.0436 -0.66997,0.13238 -1.04695,0.26665 -0.36253,0.1157 -0.7424,0.21707 -1.13999,0.30437 -0.38155,0.0851 -0.75922,0.12819 -1.13273,0.12919 -0.37354,10e-4 -0.70763,-0.0942 -1.00306,-0.28629 -0.023,-0.39516 0.0149,-0.74869 0.11422,-1.06091 0.0993,-0.31221 0.22466,-0.61157 0.37568,-0.89762 0.15103,-0.28604 0.30282,-0.56384 0.4558,-0.83354 0.16743,-0.28826 0.30033,-0.59686 0.39894,-0.92553 0.0774,-0.0437 0.12491,-0.0586 0.14261,-0.0444 0.0162,-0.002 0.055,-0.0241 0.11628,-0.0656 0.32449,-0.52532 0.70334,-0.99975 1.13689,-1.42368 0.43352,-0.42393 0.86691,-0.85613 1.30016,-1.29657 0.0869,0.0545 0.18119,0.0999 0.28268,0.13591 0.11613,0.0175 0.22355,0.028 0.32195,0.031 0.0969,-0.0131 0.18322,-0.05 0.2594,-0.11007 0.0747,-0.0765 0.12245,-0.18234 0.14263,-0.31781 0.10605,0.0852 0.19598,0.0894 0.2708,0.0129 0.0748,-0.0765 0.12563,-0.14973 0.15193,-0.21963 z m -22.83995,5.31854 c 0.52361,-0.005 1.11213,0.12291 1.76475,0.38292 0.0593,0.22442 0.0403,0.40947 -0.0569,0.55552 -0.0972,0.14605 -0.2191,0.28748 -0.36637,0.42375 -0.14922,0.11992 -0.29781,0.24771 -0.44495,0.38396 -0.14713,0.13626 -0.23265,0.30585 -0.25733,0.50849 -0.44456,0.24313 -0.8712,0.50016 -1.279,0.77153 -0.40979,0.25503 -0.82584,0.51976 -1.24902,0.79324 -0.42518,0.25715 -0.86841,0.49984 -1.32913,0.72863 -0.46069,0.22878 -0.97425,0.42326 -1.54099,0.58343 0.1275,-0.66515 0.26157,-1.34784 0.40206,-2.04794 0.14044,-0.7001 0.28038,-1.34228 0.42011,-1.92598 0.41058,-0.12224 0.81738,-0.27697 1.2201,-0.46457 0.40272,-0.1876 0.82584,-0.34462 1.26915,-0.47129 0.45744,-0.14523 0.93993,-0.21969 1.44748,-0.22169 z" />
    </g>
    <text
       xml:space="preserve"
       style="font-size:11.2889px;line-height:1.25;font-family:'Permanent Marker';-inkscape-font-specification:'Permanent Marker';fill:#ffffff;fill-opacity:1;stroke-width:0.264583"
       x="45.955921"
       y="81.162811"
       id="text18141"><tspan
         sodipodi:role="line"
         id="tspan18139"
         style="font-size:11.2889px;fill:#ffffff;fill-opacity:1;stroke-width:0.264583"
         x="45.955921"
         y="81.162811">bite</tspan></text>
    <text
       xml:space="preserve"
       style="font-size:11.2889px;line-height:1.25;font-family:'Permanent Marker';-inkscape-font-specification:'Permanent Marker';fill:#ffffff;fill-opacity:1;stroke-width:0.264583"
       x="79.772758"
       y="107.58784"
       id="text18141-2"><tspan
         sodipodi:role="line"
         id="tspan18139-2"
         style="font-size:11.2889px;fill:#ffffff;fill-opacity:1;stroke-width:0.264583"
         x="79.772758"
         y="107.58784">attack</tspan></text>
    <text
       xml:space="preserve"
       style="font-size:11.2889px;line-height:1.25;font-family:'Permanent Marker';-inkscape-font-specification:'Permanent Marker';fill:#ffffff;fill-opacity:1;stroke-width:0.264583"
       x="42.6866"
       y="134.04594"
       id="text18141-9"><tspan
         sodipodi:role="line"
         id="tspan18139-8"
         style="font-size:11.2889px;fill:#ffffff;fill-opacity:1;stroke-width:0.264583"
         x="42.6866"
         y="134.04594">jump</tspan></text>
    <path
       style="vector-effect:non-scaling-stroke;fill:#ffffff;fill-opacity:1;stroke:none;stroke-width:0.000701146;stroke-linejoin:round;stroke-miterlimit:4;stroke-dasharray:none;stroke-opacity:1;-inkscape-stroke:hairline"
       id="path26512"
       d="m 57.638587,86.55415 c -0.854276,-0.240051 -1.718321,-0.07217 -2.509967,0.281387 -0.14274,0.108858 -0.307483,0.193725 -0.428215,0.326567 -0.779614,0.857819 -0.760847,2.197727 -0.831067,3.279339 -0.01648,1.00766 0.04205,2.058098 0.439171,3.000502 0.279112,0.662358 0.472578,0.858165 0.890421,1.429819 0.625541,0.668197 1.364869,1.148482 2.249736,1.399444 0.279784,0.07935 0.56723,0.161875 0.858023,0.158025 0.993042,-0.01315 1.20246,-0.245477 2.051754,-0.683953 0.287797,-0.257005 0.600133,-0.488923 0.863393,-0.771011 0.764117,-0.818769 1.412658,-1.909715 1.649055,-3.013538 0.196649,-0.91824 0.08812,-1.219412 -0.02262,-2.108642 -0.156964,-0.322697 -0.276524,-0.666441 -0.470893,-0.968092 -0.656735,-1.019239 -1.741783,-1.537899 -2.814764,-1.990214 -1.036386,-0.431253 -1.646272,1.03442 -0.609883,1.465672 v 0 c 0.927761,0.379799 1.8156,0.799444 2.323838,1.716035 0.08967,0.531987 0.186158,0.837197 0.08653,1.388557 -0.206367,1.142082 -0.950426,2.119315 -1.773611,2.892398 -0.244189,0.151297 -0.690504,0.481455 -1.018884,0.507379 -0.194172,0.01532 -0.388866,-0.03858 -0.578246,-0.08411 -0.588275,-0.141441 -1.088973,-0.4372 -1.520741,-0.856861 -0.278035,-0.362979 -0.466312,-0.564616 -0.656553,-0.981374 -0.339632,-0.744019 -0.365217,-1.596655 -0.361471,-2.398472 0.04388,-0.694134 0.104312,-1.36249 0.254799,-2.040998 0.0095,-0.04281 0.0036,-0.08933 0.01984,-0.130062 0.0149,-0.03731 0.04727,-0.06497 0.0709,-0.09746 0.430856,-0.217271 0.92909,-0.322051 1.403329,-0.193911 1.079341,0.308383 1.515459,-1.218036 0.436118,-1.526421 z" />
    <path
       style="vector-effect:non-scaling-stroke;fill:#ffffff;fill-opacity:1;stroke:none;stroke-width:0.000701146;stroke-linejoin:round;stroke-miterlimit:4;stroke-dasharray:none;stroke-opacity:1;-inkscape-stroke:hairline"
       id="path26522"
       d="m 68.835184,99.783938 c -1.244298,0.11905 -2.1468,1.060162 -2.919941,1.956762 -0.128622,0.24607 -0.312317,0.47047 -0.385866,0.7382 -0.334568,1.21791 0.08546,2.90755 0.587515,4.03218 0.155729,0.34883 0.359199,0.67433 0.538795,1.0115 0.767347,1.08474 2.240338,2.93118 3.686318,3.0818 0.314082,0.0327 0.629187,-0.0547 0.943782,-0.082 0.328528,-0.27466 0.70716,-0.49862 0.985584,-0.82396 0.245041,-0.28633 0.412038,-0.63555 0.560067,-0.98213 0.535461,-1.25367 0.654256,-2.61187 0.555889,-3.95624 -0.03178,-0.43427 -0.112831,-0.86352 -0.169248,-1.29527 -0.318971,-1.63401 -1.040334,-3.20567 -2.545813,-4.057053 -0.201673,-0.114051 -0.423751,-0.187499 -0.635627,-0.281249 -0.188569,-0.04995 -0.377137,-0.0999 -0.565706,-0.149852 -1.089424,-0.270616 -1.472133,1.270064 -0.382709,1.540684 v 0 c 0.112683,0.0249 0.225364,0.0498 0.338048,0.0746 1.448853,0.53728 1.889207,1.65032 2.218375,3.08369 0.109355,0.79329 0.239196,1.46441 0.20107,2.27075 -0.02823,0.59704 -0.198467,1.44323 -0.41011,2.01372 -0.08561,0.23076 -0.234833,0.43357 -0.329874,0.66061 -0.04481,0.10704 -0.05847,0.2246 -0.0877,0.3369 -0.07981,0.0402 -0.150241,0.11521 -0.239429,0.12047 -0.347729,0.0205 -0.702461,-0.23981 -0.952357,-0.41957 -0.712351,-0.5124 -1.271725,-1.1816 -1.775521,-1.89358 -0.146537,-0.26334 -0.314243,-0.51596 -0.439608,-0.79001 -0.176633,-0.38612 -0.42581,-1.19738 -0.515371,-1.62057 -0.01082,-0.0511 -0.159793,-1.0245 -0.13711,-1.18453 0.02008,-0.14175 0.108709,-0.26489 0.163063,-0.39732 0.36572,-0.4321 0.993897,-1.14049 1.526109,-1.36306 0.0588,-0.0246 0.124917,-0.0254 0.187377,-0.038 1.122532,0 1.122532,-1.587502 0,-1.587502 z" />
    <path
       style="vector-effect:non-scaling-stroke;fill:#ffffff;fill-opacity:1;stroke:none;stroke-width:0.000701146;stroke-linejoin:round;stroke-miterlimit:4;stroke-dasharray:none;stroke-opacity:1;-inkscape-stroke:hairline"
       id="path26528"
       d="m 57.964982,109.6445 c -1.139388,0.006 -2.282883,-0.0243 -3.419276,0.0811 -0.770716,0.0715 -0.971783,0.13095 -1.707645,0.27881 -0.27835,0.14286 -0.58112,0.2458 -0.835049,0.42857 -0.981025,0.70614 -1.414809,2.09328 -1.140579,3.25604 0.07543,0.31982 0.235463,0.61356 0.353192,0.92034 0.669245,1.11948 1.598708,2.0024 2.761885,2.59639 0.669682,0.34197 1.051785,0.43683 1.753412,0.66452 0.888402,0.21358 1.797894,0.32636 2.708934,0.18817 0.747057,-0.11331 1.445197,-0.40737 2.136966,-0.69408 0.204271,-0.14398 0.424764,-0.26732 0.612812,-0.43191 0.717769,-0.62826 1.060897,-1.54393 1.116454,-2.47778 0.01265,-0.21271 -0.0067,-0.42613 -0.01003,-0.63919 -0.141785,-1.42142 -1.078902,-2.42462 -2.132398,-3.28981 -0.610246,-0.41801 -0.305565,-0.2286 -0.911178,-0.57282 -0.978966,-0.54928 -1.755756,0.83519 -0.77679,1.38446 v 0 c 0.45348,0.24997 0.223176,0.11098 0.688171,0.42147 0.693422,0.55265 1.39582,1.18502 1.545328,2.10152 0.03771,0.79155 -0.06189,1.53545 -0.742442,2.03846 -0.53035,0.22185 -1.078876,0.47557 -1.649235,0.5769 -0.704332,0.12514 -1.410867,0.0367 -2.101985,-0.11712 -1.541884,-0.48707 -2.60735,-0.99266 -3.541046,-2.37519 -0.07715,-0.14736 -0.181221,-0.28352 -0.231442,-0.4421 -0.04981,-0.15726 -0.05865,-0.32586 -0.06398,-0.49074 -0.02294,-0.70822 0.154914,-1.12837 0.77533,-1.49044 0.620675,-0.12793 0.834093,-0.18842 1.48432,-0.24969 1.105382,-0.10418 2.217934,-0.0717 3.326273,-0.0784 1.122532,0 1.122532,-1.5875 0,-1.5875 z" />
    <path
       style="vector-effect:non-scaling-stroke;fill:#ffffff;fill-opacity:1;stroke:none;stroke-width:0.000701146;stroke-linejoin:round;stroke-miterlimit:4;stroke-dasharray:none;stroke-opacity:1;-inkscape-stroke:hairline"
       id="path26530"
       d="m 43.298871,99.937161 c -0.579051,0.573649 -0.971888,1.188969 -1.248939,1.953849 -0.282993,0.83918 -0.238686,1.71709 -0.195961,2.5875 0.07621,1.54495 0.841211,2.27648 1.975943,3.2134 0.794046,0.5293 1.816907,1.22921 2.822892,1.2079 0.240377,-0.005 0.47525,-0.0733 0.712878,-0.10988 1.229492,-0.44168 1.838891,-1.51121 2.261849,-2.674 0.382725,-1.14943 0.06767,-2.11138 -0.395748,-3.17087 -0.397537,-0.83605 -1.059442,-1.46122 -1.773592,-2.02583 -0.298548,-0.19026 -0.593225,-0.38565 -0.893781,-0.5727 -0.953596,-0.59223 -1.791134,0.75636 -0.837539,1.34858 v 0 c 0.250762,0.15536 0.493729,0.32242 0.748652,0.47093 0.510611,0.40095 1.005112,0.82699 1.302824,1.41752 0.286697,0.64931 0.590389,1.28131 0.354124,1.99856 -0.21934,0.63059 -0.493149,1.30271 -1.096222,1.65487 -0.06889,0.0284 -0.132807,0.0754 -0.206676,0.0852 -0.620967,0.0823 -1.505096,-0.54728 -1.9934,-0.85812 -0.434777,-0.35309 -1.037305,-0.7478 -1.25593,-1.2953 -0.106182,-0.2659 -0.107847,-0.48203 -0.140724,-0.76887 -0.03324,-0.66317 -0.09305,-1.33688 0.107715,-1.9814 0.1789,-0.5314 0.473239,-0.9633 0.874167,-1.3588 0.79375,-0.79375 -0.328782,-1.916279 -1.122532,-1.122529 z" />
    <text
       xml:space="preserve"
       style="font-size:5.64444px;line-height:1.25;font-family:'Permanent Marker';-inkscape-font-specification:'Permanent Marker';fill:#ffffff;fill-opacity:1;stroke-width:0.264583"
       x="291.55679"
       y="185.80318"
       id="text28512"><tspan
         sodipodi:role="line"
         id="tspan28510"
         style="fill:#ffffff;fill-opacity:1;stroke-width:0.264583"
         x="291.55679"
         y="185.80318">by sam jackson</tspan></text>
    <text
       xml:space="preserve"
       style="font-size:7.05556px;line-height:1.25;font-family:'Permanent Marker';-inkscape-font-specification:'Permanent Marker';fill:#ffffff;fill-opacity:1;stroke-width:0.264583"
       x="143.17529"
       y="71.784866"
       id="text34486"><tspan
         sodipodi:role="line"
         id="tspan34484"
         style="font-size:7.05556px;fill:#ffffff;fill-opacity:1;stroke-width:0.264583"
         x="143.17529"
         y="71.784866">Use the d-pad or arrow keys to modify the attack</tspan></text>
    <text
       xml:space="preserve"
       style="font-size:7.05556px;line-height:1.25;font-family:'Permanent Marker';-inkscape-font-specification:'Permanent Marker';fill:#ffffff;fill-opacity:1;stroke-width:0.264583"
       x="143.17529"
       y="99.466118"
       id="text34486-5"><tspan
         sodipodi:role="line"
         style="font-size:7.05556px;fill:#ffffff;fill-opacity:1;stroke-width:0.264583"
         x="143.17529"
         y="99.466118"
         id="tspan41499">Keyboard controls:</tspan><tspan
         sodipodi:role="line"
         style="font-size:7.05556px;fill:#ffffff;fill-opacity:1;stroke-width:0.264583"
         x="143.17529"
         y="108.28557"
         id="tspan41501">    * [ctrl] to attack</tspan><tspan
         sodipodi:role="line"
         style="font-size:7.05556px;fill:#ffffff;fill-opacity:1;stroke-width:0.264583"
         x="143.17529"
         y="117.10502"
         id="tspan45431">    * [v] to bite</tspan><tspan
         sodipodi:role="line"
         style="font-size:7.05556px;fill:#ffffff;fill-opacity:1;stroke-width:0.264583"
         x="143.17529"
         y="125.92447"
         id="tspan45433">    * [space] to jump</tspan></text>
  </g>
</svg>
